<?xml version="1.0" encoding="UTF-8"?>
<svg id="Layer_1" xmlns="http://www.w3.org/2000/svg" version="1.1" viewBox="0 0 1024 1024">
  <!-- Generator: Adobe Illustrator 30.2.1, SVG Export Plug-In . SVG Version: 2.1.1 Build 1)  -->
  <defs>
    <style>
      .st0 {
        fill: #236eb3;
      }

      .st1 {
        fill: #f9fbf9;
      }

      .st2 {
        fill: #50863e;
      }

      .st3 {
        fill: #d25d32;
      }

      .st4 {
        fill: #bf5730;
      }

      .st5 {
        fill: #f3d993;
      }

      .st6 {
        fill: #ea7f3f;
      }

      .st7 {
        fill: #de743b;
      }

      .st8 {
        fill: #f7a554;
      }

      .st9 {
        fill: #dbba88;
      }

      .st10 {
        fill: #1d65ac;
      }

      .st11 {
        fill: #c8b578;
      }

      .st12 {
        fill: #a9432b;
      }

      .st13 {
        fill: #afb86b;
      }

      .st14 {
        fill: #6e2b18;
      }
    </style>
  </defs>
  <path class="st4" d="M199.43,316.43c1.63.98,1.29,2.84-1.02,5.59,1.55,1.84,2.86,3.71,1.89,6.21-1.77.12-14.91,25.59-12.56,24.54.89-.4,13.08-9.64,13.49-10.38l5.33-23.42c2.42-7.37,11.68-18.6,19.25-20.36,1.02-.24,2.07.22,2.98.63,3.15,1.22,1.52,5.86-1.18,7.05-13.21,28.7-24.48,59.68-31.5,91.56-5.86,2.09-6.89,5.86-3.08,11.31.14,11.95-.49,23.92-1.87,35.92l-2.11,1.3c1.71.31,2.01,1.65.91,4.02.77,2.7,1.39,8.74-.3,11.02,2.64.37,2.56.99,0,1.83,1.05,48.33,12.92,95.65,30.49,140.96l.15,3.79c-.31,2.18-1.55,2.32-3.43,2.29-.98,2.4-1.88,4.49-4.95,3.99-3.92-3.19-5.37-2.65-4.36,1.59,6.83,5.21,12.51,11.6,17.03,19.19,5.4,1.54,10.44,3.83,15.12,6.87,2.01,1.61,6.74,6.11,5.05,8.41,5.96,6.81,11.45,14.02,16.46,21.65l19.62,24.69c3.71,3.87,7.9,7.11,12.57,9.71,5.48.68,7.19,2.34,5.12,5,.42,1.88-.97,2.93-4.18,3.17-1.52,7.27,4.59,12.3,10.22,15.77,10.82,4.72,21.18,10.38,31.06,16.97,6.29,1.06,12.68,1.78,19.18,2.15,12.44-.73,24.87-1.04,37.31-.93l2.46,1.77c.02-3.09,6.95-3.85,8-1.04,6.87,1.32,2.4,2.93-2.24,3.62-13.52,1-26.95,1.55-40.3,1.66l-.68,1.29-14.64-1.07c31.87,23.28,67.33,42.07,105.16,52.3l.73,2.32c-4.24-.19-8.29-.4-13.21-1.1-99.27-14.02-189.11-70.77-244.39-154.63-28.78-43.66-47.87-93.17-54.39-145.17-11.5-91.68,8.57-140.73,42.91-214.11,6.49.77,2.98,7.99.6,12.02,5.86-1.1,9.16,1.83,9.91,8.78,3.29-.76,5.75-.33,7.38,1.27Z"/>
  <path class="st5" d="M612.63,321.24c2.61.61,2.39,1.54-.22,2.06l-.1,1.34c-1.94.47-3.19,1.43-3.76,2.86-5.22,1.45-6.58,3.38-4.08,5.79,4.65,1.96,8.97,7.69,8,13.21,1.04,2.79,6.69,11.62,10.11,7.79.85-.25,1.87-.07,3.07.56,5.56-3.11,14.18,2.18,17.19,9.15,2.49.48,3.75,1.55,3.77,3.22,1.57-1.56,3.44-1.41,5.63.42,3.06-2.22,5.51-2.7,7.37-1.45,1.49.34,1.83,1.76,1.01,4.27,3.51-1.36,7.32,1.06,4.97,4.31-7.04,8.18-14.18,7.08-23.27,1.98-4.01-2.7-7.06-6.81-9.15-12.31-1.86,1.15-3.94,3.42-3.66,5.73.09.78,8.76,12.05,9.52,12.24,1.57-1.95,3.23-2.55,4.98-1.81,1.74,3.38,2.99,7.16,3.75,11.35l6.65-1.41,6.99-10.02c4.74-3.8,7.54,7.78,5.3,10.72-1.15,3.7-4.16,6.88-7.36,9.52l17.8.52c.04-2.43.91-4.03,2.63-4.81,1.63-2.44,4.43.18,4.65,2.68.17,1.93-3.68,12.35-6.02,13.26.86,1.9,1.02,3.75.46,5.57-2.45,1.78-4.14,4.37-5.08,7.75-3.26,1.31-5.57,3.73-6.94,7.25l-8.9,2.97c-1.12,6.5-11.32,12.85-16.98,15.46l-2.23-.96c-15.72,3.91-20.59-2.35-25.19-16.6-3.41-5.84-6.41-11.76-9.02-17.75-3.99,2.2-8,.1-9.99-3.78-2.69-1-2.53-3.21.27-3.77l1.01-2.51c-1.04-2.22-1.19-4.2-.44-5.95-3.13-2.98-1.72-6.53,2.61-7l-.09-5.12c7.3-9.34-2-3.07-5.68.56l-2.63-.38c-4.58,4.2-11.12,2.07-9.4-5.17-3.05-.96-6.27-1.2-9.67-.73.5,1.8-.83,2.72-4,2.76,2.23,4.82,5.21,9.39,8.96,13.73.59,3.99-.29,6.46-2.66,7.42-2.06,1.84-2.82.53-3.4-1.86,3.07-3.29-6.26-14.41-7.06-14.17-.48.15,1.2,8.69,1.45,9.77-.96.91-3.77,5.06-3.26,6.36.13.34,4.89,4.9,5.2,5.08,7.45.1,12.97,1.31,15.01,9.36-.66,3.44.25,5.36,2.72,5.77,2.03-.07,3.7,1.31,5.02,4.14,4.93,3.01,6.25,5.89,3.94,8.66l-1.4,2.11c1.22,3.02,2.8,7.59-1.67,5.78-1.39,1.53-3.9,1.7-7.53.51-5.23.65-9.6,2.08-13.1,4.29.54,4.4,1.5,13.96-4.28,13.4-1.48,1.11-3.26,2.06-5.33,2.86-4.8,5.51-7.36,6.39-14.46,4.51-4.93-3.55-9.87-5.58-14.81-6.1-3.72,6.75-9.01,7.88-12.95.34-3.11.43-6.24-.63-9.38-3.19-3.61-.46-5.96-1.66-7.06-3.59,0-.76-.08-2.05-.13-2.88-.37-1.63-.45-3.36,0-5l-.02-21v-1s.02-5,.02-5v-1s0-44,0-44v-1s.03-4,.03-4c-.4-.41-.3-.74.24-1-.74-1.73.45-3.45,1.84-4.56-5.09-15.18,12.67-12.77,21.65-8.66l16.83,3.79c1.09.11,20.84-2.17,21.58-2.98.33-.37,4.51-8.23,4.63-8.71-.19-2.8-.15-5.05,1.24-7.53-2.51-3.93-4.16-10.77,2.06-10.52-.53-.62-1.01-1.72-.57-2.01,6.35-4.21,23.87-15.54,30.46-15.2.42.02.82.28,1.23.6.38-.84.72-.79,1.03.11,2.69-3.48,10.09-2.08,10.04,2.64Z"/>
  <path class="st10" d="M628.66,605.3c.7,1.81-.8,3.28-4.49,4.41-2.36,5.39-2.69,11.6-1.01,18.63-1.85,2.24-3.97,4.26-6.38,6.08-.89,5.67-.33,10.59,1.69,14.78,2.64-.25,4.32.41,5.05,1.97l1.96-1.04c-.87-.2-.82-.44.08-.74,3.52-3.38,5.67-7.86,6.46-13.43l9.25-24.82,2.38-.66c-.37-1-.19-2.13.61-2.13,4.46.02,14.06,5.89,17.64,8.87,3.2-8.52,11.85-.45,14.93,4.85,2.6-2.92,7.16-3.49,10.89-2.69,2.4.51,10.02,3.94,9.04,6.82-.55,2.11-2.62,2.4-6.22.87-2.84,3.17-7.5,3.86-11.51,3.04.16,1.79-.6,3.37-2.3,4.73l5.05,8.34c5.19-2.21,21.57,2.98,22.74,8.25.88,3.94-1.75,5.03-5.34,4.95l-16.43-7.01c-3.56-.59-4.5,0-6.07,3.17-3.87,20.09-10.31,39.51-19.32,58.26-4.56,6.66-8.4,13.61-11.54,20.85l-2.32.37c-3.13.36-5.65-1.76-7.53-6.36-7.72-22.74-29.89-31.08-52.34-27.75-3.67-1.09-7.26-2.46-10.77-4.1,1.96,3.34,3.15,7.07,3.56,11.17,7.86,1.9,13.24,5.38,14.12,14.03,3.89,4.95,4.19,14.43-2.82,16.6-2.34.73-3.51.86-4.73-1.52-.58-8.01-9.95-14.75-16.19-8.83,6.15,7.56,7.72,17.61,3.61,26.45.61,4.07-.56,6.43-3.52,7.09-7.93-1.99-15.25-1.49-21.97,1.5-9.61,8.14-19.83,12.65-31.61,16.61-2.95.99-11.02,3.34-12.71.56-.76-2.73-.71-5.77-.72-9.27l-.12-71.93c5.3-3.05,13.34-4.8,19-1.54,7.88,8.15,13.57,10.34,23.83,4.33,3.09.78,6.42.42,9.98-1.1,6.42,2.81,6.03.91-1.19-5.7-3.38.15-5.34-.8-5.89-2.86-1.41-1.87-.7-3.65,2.11-5.31,8.39-5.35,18.86-14.69,15.64-25.7,1.53-4.34,5.54-6.81,12.03-7.38,3.39-5.2,2.92-11.15-1.39-17.85,1.96-9.82,15.15-18.95,24.75-20.32,4.69-2.4,6.6-6.76,5.73-13.08l2.05-1.11c.23-2.16,1.27-2.27,3.13-2.35,2.91-.12,15.43,5.05,18.7,6.75l.4,2.23Z"/>
  <path class="st13" d="M586.52,504.18c3.65.92.7,8.08-3.15,5.86-.46,3.42-1.73,5.48-3.81,6.17,1.28.51,3.38,8.8,2.74,9.61-.53.67-1.62.48-2.48.1.94,4.19.23,5.66-2.14,4.4-1.53.77-2.71.12-3.53-1.96-5.74-.52-7.38,13.76-2,12.61l3.43-8.44,2.36-.46c3.17-3.28,5.43,2.4,5.51,5.87-.73,4.13.62,25.25,7.6,21.98,1.65-.77,13.41-29.52,13.33-33.81l3.92-5.82c.19-4.06,1.35-10.81,6.26-8.19,1.58-1.46,11.68-1.4,13.32-.65,2.51,1.15,2.39,1.74.76,3.9l-.49,2.53c-8.96,7.81-28.29,27.94-25.95,40.48,1.93,4.04,2.47,8.81,1.62,14.32,1.46,2.32,2.86,4.61,4.18,6.88.53,2.26.48,12.26-2.3,12.75-.45,2.37-2.31,2.87-5.58,1.49-4.55-3.44-15.77-5.52-21.02-3.7-.63.22-.45,1.21.17,1.48,6.51-.08,13,1.95,18.64,5.13,4.25-.79,7.11-.14,8.56,1.95-.13,2.64-.26,6.53-.63,9.33-.35,2.65-4.85,6.65-7.31,6.93-3.15.36-5.96.98-8.25,2.72-6,4.55-17.64,11.92-13.53,17.42,3.73,4.99,3.42,13.36,1.43,16.08-2.67,3.65-8.54,2.2-11.48,4.84-4.77,4.29,4.89,8.12-7.05,20.22-3.2,3.24-4.91,6.71-9.41,8.69-1.91.84-3.88,2.89-4.69,4.52-3.49,3.54-6.92-1.85-6.7-5.85l2.53-6.21c-2.67-1.69-3.88-3.43-3.66-5.22-1.05-2.81.72-5.18,5.31-7.11,13.58-2.36,19.37-20.5.75-8.35-9.29,2.19-9.31-5.03-8.92-12.05-1.51-3.97-5.42-5.82-11.72-5.53-6.57-2.03-10.99-7.2-13.27-15.5-2.33-.6-4.9-.44-7.69.49l-1.64-1.73-.17-16.09v-3c-.34-10.18-.3-20.75,0-31-.51-2.36-.67-11.13.62-12.57,1.89.48,2.72-.12,2.5-1.81-1.89-.52-2.99-1.47-3.3-2.87l-.05-3.7c.79-3.28,6.12-1.57,8.06.45,2.33,7.2,10.84,11.07,17.4,7.54,2.89.37,4.6,2.6,5.13,6.71l4.22-1.64c-.55-3.74.53-6.87,4.74-5.06.79,3.07,4.17,1.58,6.38.37,1.03-.56,1.28-5.4,1.26-7.52-1.9-7.35-1.8-14.21.29-20.59,6.97-8.06,8.87-12.09,5.82-22.52,6.6-4.53,14.44-7.16,23.51-7.88,3.9-2.56,10.22-2.36,9.63,2.99Z"/>
  <path class="st1" d="M643.49,732.02c1.55-.01,2.37.36,2.34,1.84.93.66,20.46-.64,20.78-5.78,20.25-16.3,26.65-.31,3.55,9.44-5.86,5.24-10.56,11.57-14.1,18.98l-2.38.1-.12,2.58c-7.23,6.98-14.88,13.38-22.97,19.2-44.62,20.09-79.24,29.99-130.35,32.26l.36-33.18,7.56-1.44c13.16-2.51,24.08-8.48,34.59-16.63,8.72-6.77,21.83-2.12,24.67-2.61,1.81-.32.43-4.62,1.27-6.27,3.15-6.15,3.07-17.03-3.82-24.05-1.73-1.76,3.82-6.15,6.12-5.58,12.49,3.08,9.71,2.29,14.33,13.67,3.82-1.47,7.83-6.25,5.8-9.88-1.25-2.23-2.68-4.71-2.98-7.04-.74-5.82-4.81-8.98-10.2-9.9-7.11-1.21-1.29-8.02-7.85-13.66-.45-.38-.14-2.27.44-2.35,4.86-.62,7.54,3.17,14,4.32,21.98-3.36,43.56,4.64,52.08,26.22,1.57,3.97,3.93,7.12,6.88,9.73Z"/>
  <path class="st9" d="M719.65,236.4c1.29-2.54,3.31-4.71,6.05-6.49l5.12-6.2,2.56-.24c4.66,4.98,9.71,9.63,14.13,14.87,2.63,4.35-.33,5.12-4.3,5.69-1,2.57-3.16,4.3-6.46,5.18,1.42.97,1.77,1.91,1.06,2.82-3.35.79-4.77,2.37-4.28,4.73,3.11.82,3.77,3.46,2,7.92,8.29,1.15,7.07,10.22.75,13.97-8.73,1.26-15.3,5.12-19.73,11.58-1.88,2.06-3.69,3.6-5.8,1.17-5.54-1.38-.75-8.65,2.66-11.18,1.62-1.83,2.69-3.59-1.26-2.37l-2.06-1.24c-1.43,4.16-3.63,6.8-6.63,7.92-.27,1.81-.62,2.9-2.79,2.85.08,2.87-2.24,2.86-3.09.17l-4,.9c.17,1.41-.55,2.66-2.15,3.73l-4.43,6.28,1.05,2.43c-1.72,7.09,3.94,6.6,9.32,4.97,2.88.16,7.36,1.74,4.2,4.44l1.13,1.86-6.15,9.1c2.4,5.15,2.17,9.14-.68,11.95-2.2,2.06-3.9,2.15-5.09.26-.66,8.83-15.31,6.29-20.79,2.79.02,4.29,1.56,8.41,3.91,11.95-.68,1.18-.38,2.54.89,4.08,1.81-.75,2.33-.33,2.62,1.48.49,3.04-11.44,13.78-15.33,11.35l-2.49,1.07c-10.09,5.27-5.69,3.47-13,1.03l-1.78-1.76c-1.36-6.52-8.16-9.55-13.82-11.68l-.38-2.31c-1.82.42-3.56-.8-5.2-3.66-6.4-4.43-12.08-9.62-17.03-15.6-1.18,1.43-2.06,2.23-3.93,1.09-1.03.49-5.59-1.4-4.55-2.43l4.04-3.95,2.67-.33c.79-.1,1.08-3.07,1.88-3.1l3.89-.17c1.72-.98,3.29,0,4.73,2.95,2.95,2.04,6.28,2.58,9.98,1.62l4.66,3.3c2.19-2.14,4.68-3.25,7.46-3.32.73-2.28,1.49-3.8,4.02-2.87,0-1.69,1.25-2.76,3.77-3.2l3.93-2.71c6.4.38,12.56-.24,18.47-1.86-.46-6.88,2.22-11.11,8.06-12.69-9.09-2.79-14.97-8.34-6.79-16.84-3.39-1.74-4.69-4.91-3.91-9.51-5.98.68-11.73-.42-17.24-3.28-2.5,3.03-5.76,3.55-5.68-1.13-5.05,5.29-8.4,3.45-13.78.2-1.61,1.84-3.5,2.94-5.7,3.32-2.15-2.43-4.43-3.4-6.84-2.93l.32,2.33-10.06,5.53c-1.98,1.94-4.08,3.3-6.31,4.1l-3.52,4.99c-1.83,1.1-13.79-2.55-15.6-4.72-2.87-3.44-9.84-20.52-.08-20.03,4.03-.06,7.79-.74,11.28-2.03,3.17-4.93,6.24-6.61,9.2-5.05.84,0,1.47.32,1.82,1.05-.67,2.15-3.39,14.94-1.4,14.92,3.67-.04,11.44-11.76,12.88-15.39,3.26-1.9,4.5-4.93,3.7-9.1l2.03-1.33c-1.39-2.15,5.2-14.7,6.6-15.33l2.5.03c4.66,3.06,9.33,3.78,14.01,2.15,4.09-6.1,10.7-7.05,19.83-2.86,4.53.31,8.68-1.71,12.42-6.05-2.89-8.48,6.3-7.24,11.72-3.96,3.91.16,6.46,1.42,7.67,3.78,4.77,2.48,7.78,6.07,9.05,10.77,7.49,5.9,11.36,5.54,11.61-1.09l2.43-.61Z"/>
  <path class="st3" d="M452.59,118.27l-5.1,3.71c-47.95,13.91-92.16,37.34-130.07,69.97-1.01,1.95-2.32,2.88-3.93,2.78-2.29,1.09-3.81,2.5-4.57,4.24-3.56,5.75-8.17,9.19-13.85,10.31-1.37,3.54-4.14,6.2-8.32,7.99.83.22,1.94.86,1.75,1.43-1.16,3.47-9.59,14.65-12.54,16.93l-3.32.85.23,2.81c-3.17,3.88-18.77,23.5-18.97,27.22,17.58,18.33-9.47,34.6-24.53,41.4l-1.74-1.61,1.18-7.05.06-2.42c6.2-3.5,11.99-7.56,17.37-12.18,4.91-2.24,6.04-13.04-.32-10.52-5.23,2.08-20.48,16.01-25.3,20.48-7.29,6.76-12.85,13.95-18.71,21.91l-2.46-.08c-2.47.48-6.83.94-8.9.62l-2.63-8.72-7.98.17c.07-8.18,6.33-5.66,1.62-14.15l3.53-7.55c14.6-31.21,39.71-56.26,65.38-79.55l4.36-3.96c54.45-49.4,124.94-78.22,197.78-85.03Z"/>
  <path class="st14" d="M467.65,802.37c-2.76-.97-4.13-3.69-4.09-8.17l-1.83-19.16,1.85-1.51-1.11-1.77c.28-3.68-.44-6.86-2.17-9.53l-3.13-43.34,1.91-1.33-2.06-1.41c-3.41-62.94-4.55-126.39-5.43-188.86-.87-.28-.86-.62,0-1l-1-4c-1.59-3.7-1.6-6.74-.03-9.11.84-.89,1.16-1.84.96-2.87l-1.27-.4c1.18-5.43,1.37-10.99.59-16.68-3.59-1.13-1.38-7.4.36-9.95-.55-3.62.2-5.9,2.25-6.84l-1.96-1.47-.04-16.42c-1.12-.39-1.76-1.1-1.9-2.13,3.92-6.85,3.15-12.76-3.89-17.38.93-3.46,2.87-6.7,5.81-9.71l.12-47.04,2-1.19c-2.83-.65-2.86-2.8-.09-3.64l-1.71-2.08c.99-30.78,1.8-61.55,2.42-92.31l2.04-1.81c-.78-.12-1.93-.41-1.96-.97-.29-5.53.13-15.6.82-21.1-.49-3.05.25-4.93,2.22-5.64-.86.02-1.41-.38-1.95-.98-.51-.57.01-14.28,2.8-14.09-.78-.12-1.96-.44-1.96-.98-.09-10.96.89-23.12,2.5-33.8.19-25.16,2.14-50.73,6.14-76.12.12-.74.55-1.44,1.01-2.17s1.05-1.41,1.67-2.06c.82,1.64,1.23,3.36,1.23,6.25v667.4c0,2.53-.42,4.04-1.13,5.38Z"/>
  <path class="st2" d="M555.71,182.43l2.36.73c2.03,5.64,3.58,11.39,4.66,17.25.23-3.65,1.24-6.56,3.03-8.72,6.36-3.1,12.91-5.66,19.65-7.68,7.7-2.47,12.36.89,14,10.06,6.25,4.53,7.56,9.77,3.93,15.7-.63,2.84-.07,5.81,1.66,8.9,1.18,5.14.36,8.1-2.47,8.89l-1.31,1.88-11.57-.88c1.15,4.41-1.54,5.39-5.06,6.53-4.76.94-9.5,2.37-14.22,4.26-6.98,8.41-15.06,15.08-24.24,20.02-3.26,5.56-7.59,9.62-12.98,12.2,0,0-1.48,3.68-4.45,11.03-2.61.79-15.84,7.83-15.99,10.18-.05.77,8.38,10.31,10.95,10.29,5.36,7.35-5.27,7.72-10.19,4.21-1.26,3.56-7.52,4.32-8.6.7l-3.38,2.29-1.07-1.01c-.94-12.27.42-24.69.15-36.9l1.61-2.07c9.98-4.84,10.74-14.89-1.18-17.46l-.92-2.55c-.02-.74-.1-2.21-.11-2.98,1.46-3.4,2.29-7,2.5-10.81,1.46-4.26,3.21-7.24,6.97-2.71-1.31-2.67-1.46-5.11-.44-7.32-4.71-.04-7.43-1.53-8.16-4.46.32-.8.27-2.65-.1-3.52-5.13-11.97,11.93-15.6-.68-18.82l-.33-15.05,3.99-4.01-3.15-.74c-.51-.12-.69-1.07-.7-1.64.02-1.72,1.47-2.21,4.37-1.45,3.45-4.74,15.22-4.11,16.8,2.29,8.98.63,19.87,2.65,26.2,9.22-.96,2.94.38,2.62,4.03-.98.67-4.5,2.15-6.12,4.44-4.88Z"/>
  <path class="st0" d="M792.61,376.35c1.28-.7,2.68-.02,4.21,2.03,2.99-1.44,8.4,7.17,6.57,9.72.84-.09,1.5.17,1.91.86-.46,1.02-1.55,12.71-.18,9.67.61-16.61,13.13-1.76,8.7,6.5,3.09.32,2.21,8.49,1.26,10.34-4.65,5-8.54,10.54-11.65,16.63l-4.49,3.09-2.73,11.85c2.61,6.06,1.68,13.25-4.01,17.17-.04,4.27-1.21,7.81-3.52,10.64,1.82-.45,3.05-.63,3.9,1.43,1.76-.57,2.35-.13,3.3,1.09,3.94,5.1.48,10.06-2.8,14.19-1.1,3.89-2.59,7.41-4.45,10.55,4.45-1.84,6.72-6.08,6.82-12.72,1.73-1.99,4.32-3.27,7.75-3.82.73-9.11,3.24-17.38,7.53-24.79,1.61-1.56,2.92-2.82,4.63-.66,2.48-1.75,7.58,4.68,9.13,6.97,4.36,8.34,6.15,17.74,5.37,28.18-.84,17.03-3.69,34.27-8.18,50.72-1.32,1.04-3.17.91-5.55-.39-3.33,5.2-6.19,5.02-10.53,1.01-3.92,1.86-7.6,4.57-11.05,8.13-2.7,1.25-6.23,2.4-6.97-1.28-3.72-.96-7.75-1-12.11-.12l-.59-1.21c4.35-29.58,5.44-60.4-2.22-89.89,3.87-6.4-.97-13.71-6.66-16.99-.41-4.14-.55-8.21-.4-12.2-2.85.17-2.71-2.08.03-2.71-2.3-6.75-2.54-12.92-.71-18.51l4-5.44c-.31-2.18.23-3.85,1.64-5.02,3-7.15,6.25-14.19,9.74-21.12,4.65-1.71,7.87-4.65,9.66-8.83l2.63,4.9Z"/>
  <path class="st0" d="M724.81,624.28c1.56,1.45,2.22,3.81,1.96,7.08,4.16,9.07,3.25,16.43-2.73,22.09,1.71,6.96-.52,11.46-6.69,13.51l-1.92,6.83c-5.25,5.98-10.68,13.2-3.47,20,8.03-1.2,5.14,4.68,2.14,9.1-3.61,7.09-6.63,14.42-9.06,22l7.69-5.45,2.66.92c-.16.82-1.14,3.06-1.96,3.78-16.62,14.6-34.27,27.06-52.8,38.14-4.53,2.78-10.45-1.51-6.96-5.65l3.03-5.17c3.38-5.75,7.09-12.34,13.05-16.05l12.04-7.48c.6-.37,1.31-2.51,1.54-3.14,1.43-4-10.81-1.42-17.64,7.27-2.99,3.8-6.47,2.25-10.21,2.83l-11.22,1.74-.78-4.6,2.35-5.59c2.58-6.13,7.25-11.41,10.22-17.5,5.18-10.63,9.68-21.49,13.02-32.84,3.01-10.25,3.53-24.49,8.32-27.89,4.48-3.18,9.68,1.22,17.33,4.1,2.89,1.09,5.08,3.9,8.68.65l-6.6-6.14c-3.2-.36-6.84-1.38-9.09-2.17-1.43-.5-5.54,1.09-6.86.26-1.81-1.14-3.04-4.75-4.13-6.66-.54-.94-2.93-3.42-2.17-4.18l2.79-2.8-2-5.16c5.35,3.48,10.16,2.98,14.67-.87l6.73.95c2.46-.63,5.03.04,7.7,2.01-1.54-7.56,10.58-11.86,13.6-4.33,2.26-.41,4.52-.28,6.77.4Z"/>
  <path class="st1" d="M584.52,135.47l1.13-.4c2.09,3.5,5.78,5.72,11.06,6.66,6.23-.36,9.62.42,12.34,6.52,11.09,5.57,15.66,12.42,18.83,24.18,5.77,4.94,8.52,11.82,9.45,19.39l-1.8,1.71c4.03,3.08,1.52,11.38-3.34,13.23.75,4.97-1.44,8.85-6.57,11.63,4.16,7.07,4.1,12.18-5.06,13.65-.6,5.42-2.59,8.17-6.89,11.13-1.03,2.68-2.44,4.07-4.23,4.17,1.6,2.31.23,2.95-1.77,1.13-5.75,6.64-9.29.3-7.4-6.61-1.13-4.3-2.42-12.46,2.25-14.29.71-3.82,1.69-7.35-.75-11.71-3.55-6.37,4.88-12.73.61-16.02s-6.02-5.66-6.73-10.85c-1.1-7.95-17.23-.68-21.48,1.19l-7.92,3.47c-1.27.56-.6,4.2-1.05,5.62-1.04,3.28-2.53,6.82-3.75,9.81-4.8-2.92-.18-6-.76-9.07-1-5.33-3.36-12.77-5.01-17.57l-1.85-1.25c-3.69-6.87-6.22-13.86-7.6-20.99-5.08-1.02-6.11-4.15-7.54-8.61-2.41-2.41-3.11-4.55-2.12-6.44,2.92-5.38,10.14,1.06,12.28,5.15,2.3-1.46,4.42-1.65,6.36-.57,3.59,2.52,4.48,6.03,2.65,10.55,1.93,1.63,4.22,2.93,6.87,3.92,1.99,5.75,4.36,5.36,5.25-.24-3.54-2-5.08-4.22-4.62-6.66l-1.92-1.54c3.59-6.91,3.44-11.34-.45-13.3-6.13,1.66-9.69-.03-10.7-5.07l-8.49-4.72-.24-2.23c-3.5,1.15-6.75,1.41-9.76.79-6.98-5.18-14.58-8.96-22.81-11.35l-.4-2.42c11.73.31,25.17,2.1,36.56,4.66,1.97.44,4.76,6.11,6.62,3.73.33-.42,1.14-1.99,1.38-2.43s1.68,1.12,2.26,1.23l14.71,2.92c1.94.38,3.79,2.98,5.13,3.78,2.05,1.24,5.08,2.91,7.25,4.12Z"/>
  <path class="st2" d="M592.3,459.03c1.74-2.01,2.39-1.25,1.21,1.14l1.71,2.1c-.76,3.9-.76,7.76-.02,11.59,6.81,5.45,6.03,9.85.69,16.2.99,2.62,1.61,5.14,1.89,7.57-2.6,1.58-5.23,3.02-7.89,4.31,1.62,2.44-1.25,4.2-3.36,2.25l-3.61-2.65c-1.15-.84-4.07,1.28-5.48,1.58l-16.49,3.52c-1.72.37-4.83,2.64-6.01,3.11,2.93,9.97,3.84,10.87-3.78,20.1-8.21,9.95,1.52,17.44-3.29,31.34l-5.97,2.04-.16,5.59-2.83-3.34c.46-2.33.75-3.83-1.53-5.44-2.69,5.7,4.9,11.09-2.83,12.22l1.55-6.24-6.55,3.07-2.62-8.23-4.41,2.33c-1.17-2.65-5.14.37-6.43-.55l-7.6-5.4c-1.13-.99-1.53-5.09-3.04-5.27l-5.36-.64.13-62.79c1.09-2.08,3.36-2.21,6.81-.39,5.5,4.5,14.65,4.66,20,.18,5.02-2.5,10.54-3.45,16.55-2.86,1.51-1.95,3.08-3.81,4.72-5.59l11.25.12c3.2-2.84,7.51-3.75,12.95-2.73l6.76-5.62c-4.44,1.88-6.91,1.24-7.41-1.93.68-2.28,2.83-3.85,6.44-4.7,1.78-2.01,3.83-3.28,6.17-3.8,1.57-5.26,3.77-5.9,7.84-2.2Z"/>
  <path class="st7" d="M463.58,773.53l.87,8.36c.74,7.07.6,14.29,3.19,20.48l.08,8.75c-6.16-.37-11.96-.19-17.1-1.77l-15.37-4.71c-33.26-10.2-68.62-30.95-97.46-52.42l22.6,1.66c-21.14-1.55,59.13-1.98,42.19-4.64-.05-.47-.07-.92.05-1.33.33-1.11,20.25-1.84,22.72-1.82,5.49.03,10.41.25,15.05,3.64,6.43,4.92,13.12,9.13,20.59,12.15.6,4.14,1.46,8.02,2.58,11.65Z"/>
  <path class="st7" d="M380.36,726.4c2.68-1.66,9.85,2.79,10.12,5.8.82-.14,1.49.06,1.97.69-.95,5.81.36,10.28,3.36,15.22l-1.22,2.18c-7.28.95-15.19-.36-22.97.31-8.93.76-17.03,1.55-26.1-.04-3.17-.56-8.93-.16-11.37-1.8-4.11-2.77-7.39-5.38-11.58-7.42l-18.17-8.85c-13.28-6.46-14.26-18.79-10.63-19.79l4.76-1.31,2.63-.37c2.04,3.21,4.33,5.91,6.87,8.1,11.58-4.68,23.42-3.53,34.83,1.05,7.47,1.42,15.05,1.92,22.76,1.49,6.23-.37,11.14,1.2,14.74,4.73Z"/>
  <path class="st1" d="M746.67,597.66c2.8-3.07,5.18,1.31,6.53,4.22.23,5.6,2.45,9.35,6.66,11.25,1.24,3.04,3.39,8.86,4.02,12.08.98,4.97,1.22,9.16-2.54,13.16l.85,9.28c6.55,4.77,6.64,12.4,2.68,18.67,1.13,5.62-4.15,2.57-10.16,18.24-1.84,4.8-5.71,7.77-10.52,9.43-8,2.77-3.09,11.11-15.44,14.35-2.49,1.8-4.84,4.11-7.04,6.91-.69.27-1.76,1.29-2.15,1.92-.62,1.1-1.63,1.84-3.01,2.2l-1.17.98c-4.73,2.09-8.26,5.41-12.85,9.56-.01-7.94,3.44-13.96,6.4-20.48l3.39-7.47,3.67-6.56-5.08.49c-5.85-5.27-5.78-13.99-.08-19.39,6.74-6.38,1.28-10.42,8.01-12.73,8.32-2.85-1.2-8.77,5.8-14.39,7.63-6.13-2.11-13.42.15-25.09-.81-.13-1.86-.61-1.74-1.16,1.2-5.53,2.08-8.59,7.74-10.77-.69-5.76-2.64-11.65-5.84-17.68-9.27-7.08-5.17-16.54,5.79-9.52,6.64.22,11.22,3.07,13.04,9.66,1.92.35,2.71.59,2.88,2.84Z"/>
  <path class="st13" d="M602.54,227.57l-1.5,8.01c.03,1.53,1.36,4.93,1.24,6.48l-.56,7.25,5.98-.83c3.15,1.69-.94,14.19-4.91,10.95-3.27.66-4.81,3.18-7.43,6.11-3.64,4.08-15.67.94-16.6,5.46-.23,1.14.68,3.49,1.22,4.75l4.6,10.81,12.71,3.06c1.39-1.86,2.84-3.51,4.22-3.35,3.03.49.79,7.57-2.16,7.24,1.38,1.79.26,3.61-3.36,5.45-7.64-.75-15.16-2.5-22.26-5.4l-1.38,1.85c-3.48-1.06-6.97-1.81-10.46-2.26-7.39,4.72-11.92,4.14-13.58-1.74.56-9.47-5.53.08-7.83,3.74-1.76,2.82-7.78,12.6-5.45,14.88l8.58,4.15c.94,3.44-4.4,4.6-6.92,5.11.14,3.02-4.61,8.04-5.1,2.99-2.33-.36-4.63-1.27-6.9-2.74l-9.14,6.27c5.67,3.46,5.06,12.65-2.51,11-.98-.21-11.61-8.81-12.05-9.44l-.18-2.22c-.03-.53-.06-1.46-.15-1.93-.39-2.89,1.93-2.89,2.9-.3.09-1.59,1.1-2.41,3-2.45l.52-1.66c-2.14-1.53-3.32-4.09-3.56-7.66-2.09-.96-.59-3.68,1.36-3.15l5.18.27c.99.05,1.73-2.05,2.4-3.72l6.83,3.07c1.31.59,5.33-1.14,4.42-2.02-1.24-1.19-4.17-2.38-5.56-3.07-2.23-3.39-4.8-6.33-8.66-9.55l6.75-5.93c7.84-6.89,8.14-2.02,12-6.91.02-4.69,1.92-10.57,7.05-12.09,4.06-1.2,5.29-4.31,7.45-7.84,2.5-4.08,8.73-5.49,12.54-8.4,2.35-1.79,4.54-4.88,6.74-7.04l7.43-7.29c10.08-1.16,5.83-4.29,14.28-4.27,1.19,0,4.48-1.32,4.31-2.47s-.38-1.91-1.03-4.72l15.53,1.57Z"/>
  <path class="st0" d="M812.54,567.11c.94.18,1.57.65,1.34,1.42-2.14,7.4-3.49,7.41-10.88,5.54-8.03,9.05-11.99,12.7-24.49,8.44-.4,0-7.81.8-7.95,1.17-.8,2.13,16.07,3.64,17.42,3.58,2.91-1.62,6.03-1.56,9.21-.99,2.7.48,10.02,2.86,9.45,5.94-8.95,25.41-23.28,49.72-38.78,71.98-.58.83-2.5,2.01-2.98,2.11-1.64-8.12,5.08-8.55-4.41-17.82l-1.17-10.84c4.49-4.26,3.98-10.4.95-16-1.25-2.3,1.15-6.21-3.29-7.99-7.43-2.98-2.12-12.86-10.28-16-4.31-3.33-.4-13.33,1.95-17.78,3.36-6.36,6.24-11.79,12.38-5.07,1.71,1.72,2.83.23,3.36-4.46,1.65-3.03,7.99-10.2,11.27-8.81l1.16-2.04c5.5.93,11.01,1.1,16.51.52,3.38.46,16.09,2.55,18.31,4.04,1.25.84,1.56,1.32.93,3.05Z"/>
  <path class="st13" d="M684.54,181.38c15.99,9.54,30.33,22.33,43.06,35.94l-1.11,1.85c-5.4-1.92-7.56-.4-6.47,4.55l-2.37,4.21c3.62,2.56,6.68,5.06,2,8.48-.66,1.36-1.54,4.02-2,5.93-.25,1.02-2.75,2.79-3.77,2.51s-2.34-1.31-3.7-2l-6.18-3.15c-2.72-9.17-1.16-3.29-7.11-10.32-.3-.36-1.16.99-1.94,1.89l-.47-4.74c-12.64-1.16-3.98-3.76-16.84-3.19l1.96,2.64c.46.61-.6,2.63-1.19,3.1l-6.09,4.87c-4.69,3.75-11.58.62-16.26-.7-5.04-1.43-6.69.36-9.03,3.86-1.82,2.72-8.67,2.78-11.46,1.5l-6.45-2.94c-1.27,3.08-2.27,5.03-3.65,7.53-1.23,2.24-1.73,5.27-3.67,6.38-2.61,3.14-11.15,1.74-12.35-2.23,2.9-10.53,9.04-4.8,8.71-16.66l7.8-2.38c2.14-7.47-6.53-8.76.48-13.23,1.44-.92,3.63-2.44,3.79-3.73.13-1.1-.37-3.38-.66-5.22l5.19-3.54c.39-2.84.89-6.66.78-9.05,4.09-3.03,11.39,2.86,12.1,7.81,5.1-1.45,10.56-.78,16.38,2.01,7.99-1.07,12.91,1.47,14.76,7.64l4.69,4.81c5.94-4.07,12.53-3.74,19.76.97,1.59-3.04-.68-5.78-6.83-8.21l-7.85-9.09c-3.06-.19-14.74-14.58-14.69-15.7.24-5.44,7.01-4.66,10.69-2.38Z"/>
  <path class="st2" d="M684.54,181.38l-9.49.71,3.91,4.74c1.52,2.91,3.28,6.32,6.23,7.78,5.41,2.67,8.49,8.04,12.06,12.02,2.12,2.35,8.22,3.26,8.75,7.64.16,1.36-1.13,5.35-2.3,4.87l-10.53-4.34c-4.88-2.01-8.16,5.56-11.53,2.06l-4.73-4.91-1.81-4.2c-1.39-3.22-8.3-1.57-12.11-2.56-5.34-1.38-9.11-4.45-15.09-1.99l7.31,4.59c-3.87,1.78-8.76-1.4-9.24-4.53-.9-5.92-2.9-6.76-10.43-9.71-.07-1.43-.77-4.15-1.29-5.96l-2.46-8.65c-13.03-8.67-2.34-16.34-20.03-26.47-2.06-1.18-4.89-2.9-5.4-4.54-1.73-5.56-6.07-3.7-9.96-4.21-2.5-.33-7-2.61-9.86-3.5l-2.02-4.74c-.24-.57-.1-2.59.46-2.86l1.36-.65.72,4.51.71-3.7c-.17-.18,1.26-.02,1.49.42l.77,1.47c.77-.3,2.73-.45,4.08,0,31.08,10.55,59.99,25.28,87.25,43.66,1.25.84,2.5,2.19,3.19,3.04Z"/>
  <path class="st10" d="M510.62,117.46c4.32,2.33,9.91,2.62,14.42,5.72l7.93,5.45c2.62,1.8,7.95,1.21,10.62,1.81l-.19,2.22c-2.91.96-5.2,3.34-6.87,7.14,1.07,2.19,1.09,3.97.07,5.36,1.02,1.51,3.23,4.17,4.02,5.75,1.44,2.88,1.13,6.15,4.49,6.76,4.86.88,2.86,4.38,3.88,7.84,1.95,6.64,7.84,12.32,6.73,16.93-1.91.36-1.73,4.93-2.97,6.19-8.95,6.98-3.98,4.77-11.91,12.93-1.09,1.14-5.31-.23-6.52-1.23l-10.2-8.43c9.42-2.62,13.55,2.48,19.92.5.89-.28,1.95-3.51,1.19-4.01-6.8-4.46-17.61-7.61-25.98-7.3-.47-1.85-1.35-4.76-2.48-4.82l-8.89-.49c-1.03.61-2.49,3.41-3.68,3.2l-4.32-.75c-.06-10-.63-20.49.51-30.67.53-4.72.71-8.08-.11-12.52-1.06-5.73-.44-11.23-.41-17.86l10.76.29Z"/>
  <path class="st10" d="M531.59,322.28c.88,2.41,1.13,5.1.75,8.07,1.72,5.84,4.06,7.51,7.03,5.01,2.02,1.78,3.63,1.28,4.83-1.52,2.64-.97,5.11.13,7.42,3.29,2.77,2.21,5.78,1.07,9.01-3.44h2.17c1.65-3.11,7.14-2.02,7.64,1.43-2.33,1.51-3.16,5.21-1.26,7.68,3.58,4.63-2.48,4.94.83,10.25-2.65,2.45-4.79,6.23-5.77,10.21-4.22,2.32-11.52,1.35-16.45,2.4-3.26.69-5.39,1.82-8.51.86-7.04-2.16-14.35-2.6-21.09-5.2-5.59-2.16-12.38-2.75-15.53,3.08,1.33,1.81,2.43,5.5,1.22,6.68l-3.28,3.2c-.31.54-.65.52-1.02,0l.22-45.21c0-1.36.86-3.99.99-3.93,5.78,2.02,6.38,6.27,13.76,10.23,1,.54,3.53-2.82,3.15-3.89-.44-1.25-2.04-2.42-3.83-4.03-3.85-3.47,9.27-6.85,9.52-10.77l6.3,3.09c.76.37,1.72,1.69,1.89,2.51Z"/>
  <path class="st2" d="M818.66,375.45c-2.6,4.53-5.19-.98-6.51-4.16-5.74-1.51-6.56.44-2.46,5.85.88,4.29-1.64,12.33-6.29,10.97l-6.57-9.72c-1.48-.13-2.37-1.36-2.68-3.71l-1.72-14.99c-2.18-3.29-3.93-6.8-5.25-10.52-7.68,5.05-19.97,11.12-29.27,7.07-1.34-.58-2.15-1.03-2.37-2.81-2.89-3.2,1.46-5.25,4.58-6.32,7.01-.51,13.36-3.57,19.04-9.2-5.88-10.1,4.63-26.95,8.45-9.55,2.97-5.81,2.39-10.5-1.73-14.06-3.05-4.49-4.24-8.97-3.57-13.45-3.62-6.07-7.26-12.12-10.94-18.16l.26-2.39c-2.05-2.18,2.03-5.06,4.16-3.14,10.57,16.17,20.67,33.19,27.89,51.82l8.39,21.65c3.19,8.23,5.59,16.58,6.58,24.83Z"/>
  <path class="st11" d="M537.68,672.14l-2.03,1.45c-13.54-1.45-20.32-2.18-20.32-2.18l-1.76-2.07c-3.8,3.82-5.85-2.48-4.33-6.21-1.1-2.55-3.54-3.18-7.3-1.9l-1.49-1.84.18-12.27c1.13-4.51,1.59-8.49-.28-12.86l.15-11.89,6.28-1.15c10.44-1.92,2.58,16.2,20.81,16.32,1.86.01,5.65,1.55,7.18,2.71,3.3,2.49,1.7,8.53,2.11,11.69.59,4.56,7.03,3.52,9.52,1.05,1.69-1.69,4.53-2.78,6.49-2.65,1.71.12,5.89,1.89,5.33,3.44l-3.45,7.17c-2.23,4.63-11.98,3.43-17.09,11.18Z"/>
  <path class="st1" d="M564.47,465.33c1.66-2.56,8.22,1.41,7.37,4.39,4.53,2.7,6.77-1.76,9.07.83,2.79,3.13-1.61,1.55-6.6,7.74-2.8,3.47-10.53-2.55-13.49,3.76l-12.37-.39c-5.05,12.88-8.87-.92-25.2,11.53-20.66,1.04-8.95-2.61-23.04-4.65l.14-24.26.1-1v-3.12c3.27.2,7.36,1.11,10.17,2.98l3.41,2.26c.85.57,2.53-1.31,3.74-2.01.76,3.69,4.1,8.46,7.3,6.32l3.29-4.41c.93-1.25,5.26-.93,6.74-.1l8.88,4.99c2.93,1.64,8.58,2.56,10.86-.5,1.86-2.49,6.24-6.37,9.62-4.35Z"/>
  <path class="st1" d="M537.68,672.14c.92.44,2.45,1.52,3.85,2.49,5.05,3.51-2.37,7.28-.57,11.63.57,1.37,2.96,2.95,4.55,3.17l6.82.95,6.58,7.04c.38.41.47,2.63.02,2.96-3.7,2.77-3.61-2.29-9.77.42-7.35,3.24-2.32-2.72-11.32,2.4-6.79,3.87-13.49-.23-18-5-7.55-7.98-18.4,1.57-20.07-1.92l.44-17.84c1.7-1.03,3.95-1.11,6.75-.25l6.32-1.15c-2.23-3.61-2.13-6.18.3-7.7,2.77-.08,7.81.96,11.37,1.6s9.91-.15,12.74,1.2Z"/>
  <path class="st10" d="M827.51,447.28c2.08.26,1.61,3,1.02,4.67,4.34,11.86,2.37,22.41-8.9,6.98-2.05-2.76-3.47-2.36-4.26,1.2-3.64,1.41-5.56,4.54-6.38,8.55-.77,3.74-2.28,6.94-2.86,10.86l-1.18,7.9-7.42,1.82-2.42,11.29-6.79,4.37c-1.19.76-2.38-3.89-1.32-4.84,2.96-2.66,2.93-5.99,4.26-9.3.81-2.03,4.21-5.02,4.33-7.06.16-2.66-1.3-5.75-2.99-7.43-3.19-1.03-2.35-3.32,2.5-6.85.59-6.78,1.62-11.23,9.54-11.26,1.63-7.2,3.13-14.36,4.49-21.49,1.87-2.72,4.25-5.05,7.15-7-.74-5.66-.44-11.45.89-17.38-2.64-4.18.07-10.34,4.51-7.33-.36-2.83.7-2.82,2.05-.44,2.08,3.76,4.38,7.98,4.79,12.61l2.39,27.06-3.39,3.08Z"/>
  <path class="st1" d="M815.71,567.33c-.82,2.77-2.57,2.53-3.18-.21-1.77-2.24-5.94-1.67-8.35-2.66-5.54-2.27-9.37-2.96-14.97-2.04-3.83.63-9.46-1.2-13.58-.87-1.44,2.25-8.73-2.79-9.84-4.19-4.18-5.23,2.88-7.81,7.38-4.48,1.9-.78,3.29-.69,4.19.28,3.66-.7,7.07-.59,10.24.32,2.58.47,4.45,1.01,6.97-1.21l6.87-6.05c.97-.86,4.13-2.07,5.15-1.34l4.64,3.36,3.69-4.09c1.26-1.39,5.27.63,6.77,1.86l1.36,1.1c.37.3,1.55-1.2,1.87-1.83,3.24-6.41,5.18-1.39,11.33-5.33,1.17-.75,3.21-1.36,4.15-.78.78.49,1.38,3.05,1.38,4.39,0,1.9-3.86,4.14-5.67,5.34-.1,5.99-3.15,10.74-8.44,13.67-12.56,6.97-1.24-.08-11.93,4.75Z"/>
  <path class="st11" d="M775.79,277.14l-4.16,3.14-1.13.82c-5.03-3.38-10.34-5.71-15.94-6.99l-1.94-1.66c-1.82-.65-1.83-2.54-.02-5.69-2.55-.89-3.46-3.04-2.75-6.45-6.14-.3-9.41-.82-11.29-7.18-1.6-1.04-2.21-2.34-1.81-3.92l-.54-2.2,4.07-1.47c.75-.27.59-3.09,1.37-3.24l4.52-.88c.91-.18,1.19-2.1,1.33-3.07l10.51,12.46c7.16,8.49,12.1,17.66,17.77,26.34Z"/>
  <path class="st13" d="M818.66,375.45c1.98,1.34,8.52,27.78,5.06,29.09l-2.05.44c-1.65.62-2.5-.26-2.55-2.65-1.49,3.74-3.26,4.67-5.29,2.81-.36-4.67-2.02-8.81-5.58-13.52l-1.18,7.43c-.16,1.03-1.93,2.66-2.82,2.44s-2.19-2.17-2.08-3.09l1.23-10.29,1.55-1.85c1.42-1.7,2.96-4.21,3.2-6.62.33-3.23-6.52-9.97-3.11-10.26l3.63-.3c9.62-.81,3.3,6.16,9.99,6.38Z"/>
  <path class="st10" d="M815.71,567.33c-2.28,8.51-5.04,17.13-9.07,24.9l-5.67-2.52c-4.36-1.94-8.18-2.65-12.66-.5l-8.68-.67c-5.34-.41-10.11-1.47-13.58-6.82l8.3-.06c6.24-3.83,14.35,3.46,18.11-.14l9.3-8.92c2.03-1.95,7.16,2.85,9.68-1.1.65-1.01,1.08-3.2,1.09-4.39l3.18.21Z"/>
  <path class="st2" d="M829.86,495.28c-3.42-10.27-.67-20.54-8.53-28.84l-5.97-6.31c-.97-1.02-1.47-4.06-1.67-5.99,9.44,1.25,8.74,8.11,15.13,11.23.78-1.25,1.57-2.07,1.39-2.55-3.92-10.43-.05-4.11-3.58-10.53l.88-5.01c6.58-11.45,2.97,48.72,2.35,48Z"/>
  <path class="st9" d="M513.58,669.34c-.34,3.17.68,5.22,2.6,9.06l-5.55,1.35c-3.73.9-7.32.41-10.42-1.31l.25-19.05,6.22-.7c2.2-.25,4.92,3.2,4.55,4.96-.34,1.62-.62,3-.51,3.72.14.91,1.94,2,2.86,1.97Z"/>
  <path class="st5" d="M727.61,217.31l5.77,6.17c-3.38,5.23-7.99,10.65-13.73,12.92.3-.72.9-3.61.11-4.24l-5.25-4.18c3.2-2.39,4.94-5.36,2.83-9.88,1.18-.77,3.71-1.85,4.87-1.66l5.41.87Z"/>
  <path class="st13" d="M500.57,272.37l-.49-22.09,6.87,2.88c1.97.83,4.38,3.22,4.76,5.03,1.03,4.89-3.84,14.67-11.14,14.18Z"/>
  <path class="st10" d="M499.96,247.3l-.19-21.1c-.01-1.21.69-3.29,1.05-4.2,3.95,1.97,7.9,2.8,12.75,2.45-1.44,1.05-3.95,3.67-3.41,5.13.78,2.12,2.21,5.95,1.07,7.24-1.46,1.64-3.27-1.61-4.48-3.52-4.02.42-1.26,12.45-6.8,14Z"/>
  <path class="st10" d="M660.64,762.27l-17.62,10.53-12.43,5.6c6.21-6.41,16.13-16.77,23.09-21.78.23,3.17,3.76,6.24,6.96,5.65Z"/>
  <path class="st10" d="M504.88,308c-.43.76-1.39,2.29-1.36,3.15,1.44,3.45,2.14,6.89,2.08,10.32l-2.05,1.45-2.9.3c-.71-3.45-1.37-10.38-.23-13.94l1.59-.62c.27-.1-.05-.8-.35-2.04-.12,0,1.47-.02,2.27-.04.56,0,.64.69.95,1.42Z"/>
  <path class="st2" d="M500.33,572.28l-.93-1,.74-16.25c1.42-.08,5.02.59,5.24,2.02.2,1.29-.24,3.89-.91,4.56s-2.59.03-3.82-.27l-.32,10.94Z"/>
  <path class="st2" d="M500.63,647.13l-.28-12.86,2.88,4.35c-.11,2.6-1.42,6.41-2.6,8.52Z"/>
  <path class="st0" d="M728.77,708.33c-.63,2.79-4.66,6-7.04,6.91l3.59-7.05c.36-.7,3.09-.15,3.45.14Z"/>
  <path class="st2" d="M500.35,457.28c-.78-1.41-.86-3.83,0-5v5Z"/>
  <path class="st0" d="M719.58,717.16c-.29.48-.12,1.93-.67,1.98l-2.34.22c.7-.97,1.9-1.85,3.01-2.2Z"/>
  <path class="st2" d="M500.33,606.28c0-.83-.07-2.17-.01-3v3Z"/>
  <path class="st2" d="M500.34,425.28c0-.28.01-.73.01-1v1Z"/>
  <path class="st2" d="M500.36,464.28c0-.27.08-.72.1-1l-.1,1Z"/>
  <path class="st2" d="M500.34,380.28v-1s0,1,0,1Z"/>
  <path class="st14" d="M465.59,117.05c-.23.88-.57.9-1,.09.42-.33.7-.4,1-.09Z"/>
  <path class="st2" d="M500.37,375.28c-.22-.15-.78-.65-.78-1h1.02c-.08.24-.24.73-.24,1Z"/>
  <path class="st14" d="M468.45,117.35c-.38.81-.71.71-.99-.21.45-.67.72-.59.99.21Z"/>
  <path class="st2" d="M500.32,431.28v-1s0,1,0,1Z"/>
  <path class="st3" d="M450.83,493.22c3.71-1.21,2.78,8.77,2.1,11.45l-1.42,5.63c.35,2.38-2.11,2.19-3.02.33l-1.75-.76c-3.55,1.5-12.28-.57-7.18-4.49-3.93-1.58-4.39-2.86-4.83-6.8-1.57-2.16-2.21-4.19-1.92-6.09-1.49-.41-1.51-.11-.04.89,2.25,3.95-3.01,6.16-5.96,2.31-3.98-.15-8.13.44-12.44,1.77.02,1.71-.5,2.59-2.39,2.83.68,1.87-.4,3.17-3.25,3.9-6.4-2.09-7.6,1.82-4.64,7.37l-.42,6.72c3.68.34,5.63,2.98,5.82,7.91,5.82-1.56,12.62-2.56,17.93.98,2.64-1.48,5.47-2.49,8.51-3.03l1.94,1.78c.4-1.97,1.28-1.85,1.63.16,1.57-.78,3.55-.67,5.93.32,2.79-.71,4.84-.42,6.16.86.66.17,1.99,1.94,2.01,2.8l.78,44.23,1.06,53.93.69,22.5,2.96,66.8c-1.2,1.99-3.99,1.94-8.36-.13-4.42,0-8.84,1.44-13.27,4.32-10,.61-19.15,1.74-28.2,6.74l-2.51-1.1c-9.7,4.84-18.52-1.48-19.61-11.93-5.47-10.79-19.24-20.5-29.32-27.5-9.07-3.56-16-9.16-20.8-16.79-6.82-.17-10.83-3.13-12.03-8.88-3.35-3.16-14.23-1.59-6.76,2.68,3.47,6.82-3.03,10.36-8.72,6.45-6.65-.53-7.21,2.73-1.7,9.79,3.63,6.85,3.89,13.01.8,18.47.4,6.83,4.37,7.16,11.9,1,11.65-3.9,27.52.04,37.46,6.71,5.61,1.02,10.97,2.49,16.09,4.41,3.29,3.3,8.61,10.28,6.3,14.61-17.28-5.75-26.74-.01-40.74-5.18-9.87-3.64-19.61-4.58-29.71-.48-5.42,2.2-6.81-6.12-11.38-9.36-.36-.79-.93-2.11-1.71-2.24l-3.79-.59c-1.57-1.1-4.21-2.86-5.93-3.86-6.95-4.08-11.47-11.62-16.8-18.1-9.6-11.68-18.78-23.31-25.55-36.26,1.68-.85,4.01-.08,6.98,2.33-6.22-5.56-12.09-11.47-17.58-17.71-1.49-3.11-2.48-6.44-2.99-10-3.62-5.07-7.35-9.95-11.2-14.64l.33-2.31c-19.08-44.8-31.01-91.84-32.26-141.11-.05-1.99.15-3.14,1.61-3.64,1.5-.58,3.41-.53,5.75.15l9.42-.75c6.57-3.32,8.12,2.89,2.67,6.99-1.29,4.98-4.05,11.01-10.14,10.27-.24,4.18.29,7.77,1.59,10.78,7.59,1.55,9.92,4.31,11.26,11.66,2.66,2.63,3.94,5.04,4.1,8.85,1.83-.05,2.97.09,3.3,2.24l1.39.08c1.9,5,2.04-3.29,2.08-6.14-2.27-1.89-5.06-20.5-4.45-21.56.77-1.33,1.39-1.28,2.91-.49l-.21-2.21c4.25-7.24,7.62-7.27,10.1-.09,3.36-4.98,13.42,1.73,14.54,6.45l1.38,2.6c1.55,1.65,1.6,1.05.15-1.8-2.89-1.78-1.31-2.99,1.34-4.02.19-2.12,1.83-3.04,4.91-2.76,0-2.04.6-12.13,1.19-12.84,1.1-1.34,2.04-1.51,3.51-.58l6.75,6.43c1.21-10.88.58-13.39-1.89-7.54-7.03-.2-2.51-9.28,1.54-11.49,4.18-.47,4.74-.91,1.68-1.31-1.16-2.47.91-4.49,3.29-2.66,1.43-1.47,3.55-.85,6.34,1.87,3.53,1.06,6.13,2.7,7.8,4.91,9.06-1,18.2-1.23,27.42-.69,6.59-1.45,37.97-4.31,41.12-.99,1.34,1.42.97,2.43-.22,3.87,3,.82,3.57,2.61,2.6,5.55,5.19-.03,14.41,1.29,13.29,7.57-2.31,1.78-4.82,3.24-7.55,4.39l1.53,2.11c7.24-10.18,8.8,2.17,2.08,7.92-1.01,4.4-.13,7.83,2.62,10.29,2.71-8.32,12.19-20.38,18.42-8.34l2.44,1.01c-5.69-11.56,7.27-13.47,14.63-5.98,2.85,1.21,8.96,3.09,10.77.22-3.67-1.43-7.08-4.28-7.41-8.44-.65-8.18,4.44-6,8.61-2.28,7.78-4.26,27.34-3.53,27.63,7.85,2.73,1.14,4.26,2.83,1.33,4.96,4.58-1.24,7.02.4,9.59,3.95Z"/>
  <path class="st8" d="M390.23,342.38c-10.1,4.65-15.43,4.61-18.81,9.81-3,4.6-8.35,9.05-14.14,7.46-2.38-.65-6.22-4.24-8.59-3.59l-10.96,3.01-20.3.63c-2.76.09-5.51-2.02-6.99-4.14l-6.63-9.51,12.44-.74c.61-.04,2.15-1.17,2.5-1.6,2.65-3.22-19.27-5.07-32.69-18.79-5.89-6.03-8.13-15.05-4.74-22.91,2.01-4.67,7.37-7.06,12.2-7.89,18.4-3.14,17.98-13,29.82-8.57,1.99.75,6.84.28,7.37-1.72,1.39-5.3,2.2-10.17,1.93-15.53-.3-5.79-12.06-3.24-11.37-7.28.18-1.02.7-3.91,1.72-3.73l5.11.86c-.37-6.61-17.03-1.68-15.18-6.63,3.17-8.46,9.75-8.78,8.31-16.53-1.29-6.95,2.88-13.25,9.52-14.54.83-.16,3.05.53,3.04,1.33s-.84,2.63-1.58,3.27c-7.62,6.64-.48,6.62-7.24,16.08-.37.52-.76,2.21-.86,2.77-.14.75,2.52.47,3.42.06l23.75-10.88c9.13-4.18-.66,11.56,4.48,12.25,5.58.75,8.8,1.29,11.95,5.88,2.08,3.03,2.67,5.85.03,9.37-1.07,1.43-1.12,5.6.28,6.61,4.84,3.52,8.34-3.27,10.99-3.52,4.02-.38,4.43,6.86,7.04,6.46,4.88-.77,4.37-3.95,8.04-4.53,3.36-.53,4.86,7.76,12.13,5.29l7.6-2.58c4.98-1.69,12.51,1.56,12.19,7.69-.19,3.71-3.67,7.75-5.79,10.81-6.9,9.93-10.12,8.26-10.85,12.08-1.04,5.41,5.79,7.54,4.56,11.68-1.16,3.91-5.09,4.17-6.72,7.34-1.11,2.15,6.46,5.46,1.67,11.71-12.69,16.58-7.52,7.65-18.62,12.76Z"/>
  <path class="st8" d="M453.59,381.09l-.08,48.81-6.48,8.61c10.37,3.65,5.74,16.01,6.17,15.74l-2.6,1.61,2.61,1.22c.57.27.31,16.95.23,19.35l-2.54,1.33-12.32-4.13c-2.96,2.72-6.89,2.95-11.8.68-8.09-3.19-16.5-5.64-25.23-7.33-15.86-7.71-33.01-10.73-50.95-11.04l-3.83-2.12c-7.1.91-33.95-.68-19.39-11.14l11.31-2.93c.39-2.85,1.67-4.34,4.51-4.93,15.48-1.13,30.97-1.29,46.46-.48,11.62,4.26,20.23,4.47,31.68-.61-5.22-1.96-10.52-3.34-15.91-4.14-1.37-.85-3.43-1.1-6.17-.77-3.04-1.75-4.3-3.91-3.75-6.49-2.36,1.46-7.58-4.68-8.64-6.68-3.18-6.01,1.46-10.88,6.31-13.85.41-3.86,8.07-15.39,11.56-9.87-.15,2.43-.1,4.87,3,4.14.7-.17,8.94-10.11,6.8-11.4-4.53,2.71-19.34.37-15.13-6.18.57-.89,3.82-1.27,4.23.47,1.26-1.32,3.25-1.25,5.97.23l5.27-1.88c7.61.35,15.26.23,22.94-.36l.26,3.31c4.77-1.77,12.76-4.61,15.48.82Z"/>
  <path class="st7" d="M212.94,453.58c-.08,1.23-.45,1.08-1.12-.43l-2.16-.78-1.62-9.99c-1.49,2.1-3.31,2.92-5.85,2.22-.9,3.16-2.41,4.65-4.53,4.47.31.76.48,1.87-.08,2.14-6.23,3.09-7.71,1.95-8.54-4.83l2.5-32.18c.55-7.03-4.54-9.38-2.41-13.62.7-1.39,3.4-2.79,5.42-3.76,3.47-15.8,8.1-34.49,14.26-50.15l12.74-32.4c1.27-3.23,2.19-7.11,6.05-7.97,5.5-1.23,13.47-6.42,17.71-10.13l8.17-7.14c2.98-2.61,4.39-7.15,4.22-11.01s-3.24-7.69-6.18-10.84c1.71-5.52,6.63-10.6,9.32-15.43,3.52-6.3,7.72-10.44,11.78-15.28,1.51-1.81,6.54-2.09,7.91-.05,3.31,4.93-3.7,20.5-6.17,25.8-2.02,10.57-2.57,21.46-1.66,32.69-2.55,8.95-6.15,17.27-10.81,24.99-9.89,6.7-14.73,15.3-14.55,25.8-1.99,6.63-14.22,15.63-20.63,19.08-4.18-1.27-6.79-4.76-7.82-10.47-3.97,5.53-5.56,11.93-4.77,19.18l-1.12,1.5c-1.66-.19-3.09,0-4.31.55,1.42,6.2,0,10.73-4.28,13.58l.98,3.86c1.71-3.32,5.3-4.26,10.74-2.82,6.14-3.11,8.38-2.03,6.73,3.26l.96,6.6c-2.33,8.74-.4,14.45,5.78,17.13,7.78,5.71,3.16,28.97-8.63,22.34-4.16.58-3.41,2.66,2.25,6.24,1.11,1.47,3.62,14.04,3.42,15.3-.48,2.98-3.16,4.6-5.87,3.53-2.1-4.19-4.71-7.85-7.84-10.97Z"/>
  <path class="st8" d="M456.25,281.25l-1.75,73.05c-.18,7.36.13,16.7-1,23.16-1.09,1.67-2.66,1.49-4.72-.53-4.76,1.09-9.11.99-13.04-.29-7.16.98-14.25,1.32-21.26,1.03v-2.37c-1.8-2.63,2.3-5.07,4.87-3.82.94-1.16,2.53-1.23,4.77-.21,4.62-1.51,3.17-2.12-4.34-1.86-8.22-2-16.62-1.38-25.22,1.86l-3.97.13c-.07.78-.26,1.94-.81,2.03-2.56.41-14.92.84-16.15-.38-.9-.89-1.09-1.7-.28-2.75,4.02-.93,7.34-2.84,9.95-5.74,2.07-.45,2.99-1.21,2.76-2.3l2.62-2.12,23.77-7.88c1.05-.6,1.52-1.34,1.41-2.22-8.02-5.72-11.84-11.52.84-12.8,2.59-4.99,5.89-9.57,9.89-13.75-1.03-2.82-2.3-5.71-3.81-8.68,2.06-3.75,4.7-7.27,7.94-10.57-2.42-10.14-1.68-11.73,7.66-16.85,3.88-2.12,12.28-6.43,16.24-7,1.28-.19,2.51.29,3.62.86Z"/>
  <path class="st12" d="M272.5,441.49l2.14.49c1.73,4.22,5.53,5.54,11.4,3.95,4.66-.25,7.2,1.02,7.6,3.83,3.14-1.41,4.27,1.55,2.05,4.16-15.03,2.45.69,2.41,6.39,1.2,3.85,1.28,7.41,1.32,10.7.13l1.95,1.1,1.1-2.03,30.95-.5c13.65.34,27.34,1.44,40.99,5.34,7.52,2.15,6.84,4.75,25.47,8.77,3.37.73,6.21.87,9.51,2.43,18.38,8.71,10.39-1.18,18.62,1.93,4.45,1.68,8.13,3.02,12.07,4.14l-.27,7.53-1.9,3.22-.44,6.04c-.65.21-1.8.97-2.21.47l-2.12-2.6c-2.09,0-5.61-.22-7.41-.65-.36-.09-.48-2.2-.49-2.59s.34-.16.95-.14l2.41.08-4.86-2.77c.39-.9.91-2.55.57-3.6-1.35-4.15-9.93-5-15.48-5.69-2.68-.33-6.38,1.88-9.45,2.65-1.91.48-4.88-2.32-6.04-4.27-2.03,3.56-1,6.88,1.45,9.08,7.41,6.65,15.89-5.48,20.25,6.24-3.31-3.12-6.36-4.61-10.66-3.31-3.38,1.02-6.11,2.72-8.11,5.16l-8.45-1.93c-5.18-1.18-7.48-6.72-12.37-4.8-1.25.49-3.52,3.15-2.98,4.33,1.09,2.35,3.27,5.72,4.71,8.15l-8.55-3.4-4.08-5.68-7.15,4.42-3.9,8.48c-2.95,6.41,5.12,13.56,6.08,11.35,1.58-3.61,1.3-9.85,6.71-8.47-7.23,9.85,2.75,13.65-1.71,15.65-9.18,4.12-8.42-4.74-17.9-6.07-3.65-3.61,6.09-8.67,3.17-11.87l-3.31-3.63.32-8.54c1.92-2.71,5.52-6.13,4.37-10.17l-6.84,9.91c-.36.53-2.82-.66-2.65-1.27.88-3.34,4.58-4.02,3.04-5.47l-3.54-3.33c3.87-1.12,7.17-2.45,10.89-5.11-11.45-6.38-6.1-2.87-10.71-3.59-10.21-1.6-15.52,2.5-16.62-3.92,7.43,5.56,13.78-.84,14.06-.66-5.3-3.34-4.48.01-11.06-3.36l9.59-1.62c-5.73-1.51-11.82-2.83-17.87-2.16l-18.23,2.02c-10.59,1.17-17.77.24-29.91,1.03-3.19.21-7.06,4.55-10.12-.52l6.45-.3-7.45-3.42c-2.48-1.14-3.88-3.01-5.83-3.84-3.01,1.73-4.44-1.86-5.15-4.23-3.82.82-2.74-4.08.86-4.58.5-3.24,1.83-4.77,3.98-4.56.15-.87.39-.83.71.05.52-2.95,4.62-1.55,4.31,1.33Z"/>
  <path class="st7" d="M395.52,422.35c.99,1.06,2.84,2.91,4.03,4.39.9,1.12,3.92-.11,5.27-.9l1.64,2.37c.36.53,1.61-1.52,2.06-2.1,4.35,5.5,9.77,2.12,17.75,8.38l-15.18,4.46c-2.68.79-5.97,1.41-8.6.73l-12.31-3.16c-5.32-1.36-10.16-.99-15.61-.82l-13,.41-17.32.55c-.71.02-3.16.87-3.25,1.56s.04,1.73.15,2.97l-13.48,3.48c-1.02.26-2.77,2.03-2.74,3.06.13,4.65,14.7,2.72,21.85,6.09-1.19,1.31-3.78,1.9-6.16,1.95l-25.89.58c-1.72.18-2.46-.78-2.21-2.87l-9.99-.57c-3.01-1.69-5.98-2.74-8.89-3.15-11.81-5.44-16.69,4.25-21.14-8.27-1.01-3.19,1.44-3.34,4.18-2.59.29-1.06.96-2.7,1.84-3.09.6-.27,12.52.13,13.14.34,1.36.47,1.82.67,2.56,1.97,3.88-9.76,9.64-7.06,15.34-.57,3.68-6.82,10.67-6.97,17.47-5.96.77-1.55,1.88-2.5,3.34-2.87,2.29.31,4.41.79,6.36,1.43.37-2.93,2.23-2.55,2.87.13l1.49-1.27,13.84.41-.51-1.32c-3.47-1.76-1.5-6.35,2.94-4.75.87.58,2.15,1.12,3.84,1.62,3.55-5.88,13.28-6.28,19.68-6.54,1.64-1.66,3.39-1.89,5.37-.67,2.95,2.88,6.04,4.41,9.28,4.58Z"/>
  <path class="st8" d="M458.18,238.47l-.85,15.07c-1.05,2.02-3.11,2.26-6.19.73-17.22-9.14-34.68-17.61-54.85-15.72-5.68-2.07.49-11.7,2.97-14.96,5.45-7.18,14.23-10.28,21.27-3.34l.9-5.06c5.22-8.13,2.78-10.94-7.33-8.44-7.9-3.28-16.34-12-1.84-12.58,12.64-4.78,24.62-10.82,35.94-18.11,2.89-1.09,9.28-1.51,8.88,2.34-.15,1.44-10.44,9.36-12.74,10.87-5.25,3.45-9.63,4.72-15.91,5.18-.74.21-2.76.91-2.98,1.36-.52,1.07,20.52,6.94,22.93,3.62,6.02-1.59,15.92,2.82,7.08,7.43-7.21-1.37-15.84,1.55-19.47,8.27-5.45,10.09.92,11.89,9.9,7.96,5.4-.37,11.14,2.27,6.59,7.38-11.71,1.89-17.57,2.83-17.57,2.83,7.38-2.07,13.27-1.84,19.56,2.57,2.1.13,3.34.99,3.72,2.58Z"/>
  <path class="st7" d="M267.8,453.49l-3.29,2.66c-.08.39-.64.83-1.68,1.31-.37,7.52-3.99,1.25-2.94,10.87l1.83-4.55c.38-.95,3.64-.09,4.13.1l-.67,13.4-.09,2.63c-.02.52-1.9-.67-2.31-1.05l-6.46-6.03c-.24-.22-1.02-1.19-1.23-1.41s-1.19.1-1.04.36l1.25,2.14c-1.58,2.63-2.87,7.97.18,11.47-3.44.03-5.96.17-8.66.87-2.74,4.95-6.42,1.2-3.2-2.78-4.14-4.75-6.54-9.66-7.2-14.75l2.04-1.1.06-2.34c-6.93-8.84,6.11-14.33,11.55-5.81l2.75-.8c-.46-3.68,2-5.72,7.39-6.11-.5-2.62-.49-4.31,2.44-3.3,1.87,1.1,3.7,2.7,5.15,4.23Z"/>
  <path class="st4" d="M238.46,467.63c-.49,10.19,3.08,5.16,7.8,16.92l-3.34,2.28c1.81-.2,2.95-.33,3.91-.58l-1.34,4.02c1.47,1,1.76,1.7-.15,1.8l-2.64-.34c-.77-.1-.45-2.43-.64-3.15l-4.95-3.91c-1.62-1.28-5.62-1.71-7.68-1.66-2.3-2.88-3.09-6.77-2.37-11.68-7.11-2.89-8.63-4.79-1.19-8.53,5.5-2.76,12.56-1.95,12.61,4.81Z"/>
  <path class="st8" d="M219.51,485.32c-2.05,1.12-1.79,5.58-.43,7.3,1.2,1.53,1.68,5.26.74,6.64-2.68,3.93,2.71,6.11,2.71,8.24,0,3.33-.95,7.52.64,10.78,5.25,10.76,4.27,5.3,7.22,11.51.24.5-.73,1.77-1.26,1.6-5.96-1.9-10.27-12.66-11.55-17.94.22-5.18-.81-10.47-3.1-15.87l-1.87-12.2c-11.57-.97-8.84-10.35-1.43-15.87l1.38-2.38-2.46-12.25,1.7-1.73,1.12.43c7.32,6.13,6.88,17.14.15,24.05,3.82.55,9.79,4.1,6.42,7.69Z"/>
  <path class="st8" d="M337.78,205.35c-11.17,10.79-5.13,15.02-15.9,12.36-.44-7.06,10.55-7.87,7.79-21.18,3.46-1.15,8.22-1.71,10.58,1.37,1.49,1.94-.87,5.92-2.46,7.46Z"/>
  <path class="st12" d="M453.5,377.46l.09,3.64-7.76-1.36c-3.6.94-7.63,4.12-11.26,1.64,1.15-1.34,2.54-4.06,1.49-3.97l-20.18,1.77c-2.12.19-5.13,2.91-7.87,1.71l-4.35-1.91c-5.82-3.84,8.94-7.57,10.81-3.68,5.15,3.77,11.28.9,17.32.69,5.84-.2,11.79-.46,17.28-.97l4.41,2.44Z"/>
  <path class="st12" d="M313.49,194.72l.94,2.02c2.44-.6,4.72,1.4,3.41,3.75-4.87,1.49-8.62,3.99-11.26,7.5.27,7.61-6.58,9.25-12.84,9.12-3.14,1.73-5.47,1.78-7,.15.14-1.65,1.5-2.39,3.81-3.49l3.2-6.33c12.48-1.24,9.57-11.1,19.73-12.71Z"/>
  <path class="st8" d="M361.19,424.98l-3.92,2.24-2.04-3.54-.81,4.42-.33,1.01c-5.15-.54-9.98-.15-14.49,1.17l-2.87-.13c-3.94-1.2-1.22-6.95,2.93-6.81-4.49-6.57,3.04-9.73,8-3.66,4.98-3.53,16.19-1.67,13.53,5.31Z"/>
  <path class="st4" d="M419.35,371.48l-2.53.77c-7.27-1.46-14.99-.89-23.16,1.7-2.03.26-2.98-.41-3.06-2.54,13.12-2.15,13.09-5.1,24.05-4.23,6.69.53,12.79-.1,19.46,1.55l-9.17,4.35c-1.45.69-4.16-.53-5.59-1.59Z"/>
  <path class="st7" d="M268.2,440.16l-.71-.05c-2.7,3.41-6.52-2.77-7.59-5.68-2.4-6.55,1.18-9.8,6.05-4.59,5.06-11.4,15.65,5.47,4.26,7.08.24,1.8-.43,2.88-2,3.25Z"/>
  <path class="st12" d="M228.79,299.25c-26.12,14.18-18.09,21.07-25.95,44.23l-14.24,11.16c-7.81,6.12,1.03-13.19,1.02-13.16,3.61-8.48,10.74-13.49,8.71-16.21l-2.36-3.17,3.46-5.67,11.39-14.81c4.89-6.36,27.3-24.98,34.23-29.28,1.55-.96,5.41.27,6.41,1.6,6.8,9.07-17.08,21.49-22.67,25.31Z"/>
  <path class="st6" d="M211.82,453.15l2.7,14.12c-1.01,5.55-9,6.96-7.6,13.27.75,3.38,7.46,2.3,7.57,3.53l.31,3.26c.57,5.93,2.24,13.75,4.53,19.26,1.07,2.59.76,6.11-1.76,6.84l-6-.42c.82-4.02.58-5.83-1.8-8.01-4.33-3.97-.1-9.8-8.53-11.45-9.76-1.91-2.02-8.06-8.2-17.31l5.55,1.99c8.72-3.05,3.71-9.35,10.42-12.48.43-6.87-10.93,2.83-19.36-2.51v-1.83l1.44-1.88c10.97,1.02,21.8,1.87,6.99-7.99l-.41-2.48,4.05-7.93c-1.81-1.93-2.18-3.32-.88-4.07.83-.48,3.45-.69,3.27.16-1.34,6.43-2.2,4.8,0,5.74.58.25,2.19-1.36,2.3-1.98l1.46-7.86,2.73,11.38c.57,2.38.72,6.1,1.21,8.64Z"/>
  <path class="st12" d="M220.3,608c9.28,7.47,2.59,5.5,11.83,14.85,2.1,2.13,1.54,7.23,3.09,10.05s5.38,5.45,7.57,8.21c3.26,4.11,7.9,8.42,11.67,10.97.74.5,2,2.68,1.33,2.88-4.28,1.29-9.84-3.33-11.03-4.64l-5.35-5.87c-3.14-3.44-6.81-4.98-11.21-5.69-6.82-1.1-8.65-7.53-11.94-12.48-2.3-3.46-6.83-5.66-10.02-8.92-1.82-1.86-.66-6.39.93-8.26l6.29,3.75c.94-1.94,1.68-4.36,2.85-4.5,1.04-.13,2.94-.28,3.98-.36Z"/>
  <path class="st3" d="M197.66,449.07c3.17,1.44,8.69,6.04,9.99,8.51.51.97-1.65,4.15-2.83,4.29-3.97.47-10.76-.03-15.18-.45-.63-1.05-1.32-3.47-1.23-4.87l.63-10.16,4.01,1.15-2.29,2.37c-.33.34,1.09,1.17,1.54,1.02l1.54-.53,3.81-1.32Z"/>
  <path class="st10" d="M665.6,374.75c1.77-.92,2.29-.28,1.05,1.28,1.6-.82,3.19.49,4.77,3.94,9.24,2.23,16.76,1.36,24.98-3.69,4.17-2.16,7.29-2.18,9.36-.04,1.75-.13,3.12.86,4.12,2.96l2.82,2.56c4.03,2.34,8.01,4.57,11.94,6.7,1.25,1.24,1.31,3.02.17,5.35,3.5,3.72,6.08,2.34,7.75-4.16,3.97-2.12,6.57,4.22,3.12,6.53.36,1.05.69,2.12.17,3.18,1.95.24,2.04,1.08.17,1.72,6.51,17.89,14.68,35.11,24.54,51.67.08-2.16.86-3.36,2.34-3.6-.71-1.58-.65-3.57.18-5.95l-.36-9c.15-1.7,1.35-1.9,2.91-1.13,1.2,2.79.98,6.56.75,10.28,6.27,2.27,12.96,13.27,8.17,19.04,6.83,26.62,7.42,53.71,3.35,80.93l-1.34,8.94,9.85-.02c.23.24,1.23,1.27,1.19,1.23-4.37-.8-9.36.43-13.99,1.34-2.42.47-4.75-3.91-7.82.14l9.84,6.59-8.29,7.76c-1.69,1.58-1.93,5.5-2.74,7.19-1.24,2.6-6.9-.5-8.39-3.85-6.53,6.8-10.1,16.26-9.54,25.01-1.29-.5-4.58-.74-4.93-2.18-1.16-4.88-4.12-7.88-9.34-8.01-4.87-.12-7.69-5.15-10.19-2.2-.9,1.07-.16,4.62,1.15,5.22,3.44,1.57,3.72,4.29,4.91,7.57,1.56,4.34,4.94,8.26,4.93,13.35,0,2.77-3.19,3.94-6.04,4.85l-2.36,8.03c-.76,1.41-1.14,2.96-1.91,6.02l-.49-4.92-4.89.58c-1.29.15-2.47-3.64-3.35-4.58l-7.23,2.33-1.45,3.53c.03,1.83-.11,2.65-1.03.97-1.94-.71-3.67-2.43-5.21-5.13-4.65-.1-7.66-1.56-9.02-4.37-6.93,2.32-10.79.6-13.9-6.06-4.96.37-9.15-1.76-12.56-6.41-8.47,3.38-17.31,6.78-21.92-4.04-3.12,1.22-5.72,1-7.77-.66-2.33.59-4.67.92-7.02.99-1.05-.16-19.19-6.54-20.06-7.15-1.18-.83-1.75-1.31-1.32-3.08l.32-13.65c-7.42-4.91-2.64-10.13-4.45-18.14-4.9-3.54,1.45-15.45,3.73-19.55,2.35-4.21,5.8-7.43,8.75-11.09,4.58-5.7,8.12-11.37,14.59-14.53l-.34-2.23c9.33-11.09,16.4-23.79,21.22-38.12.18-3.22,1.17-5.42,2.96-6.58-1.7-.05-2.22-1.2-1.59-3.45-2.82,2.13-6.43,2.73-9.92,2.97-3.48,2.47-6.94,3.25-11.08,3.79-3.24,4.22-6.45,5.2-9.6,2.96-.37-3.79-4.37-4.78-7.65-5.4-.79-.32-.4-.97,1.18-1.93-.66-1.24-.19-2.33,1.42-3.29-1.62-3.33-4.68-5.96-9.19-7.89-1.18-1.85-2.72-3.39-4.61-4.61-4.03,4.49-12.51-8.78-8.94-12.33-1.55-7.72-3.64-2.27-8.96-12.79-1.94.01-1.88-.76.1-1.15-1.34-.71-1.63-2.04-.86-4l-1.88-1.55c-.06-5.1-2.75-8.83-8.06-11.21l.05-2.39.87-6.81-4.95-6.21c-2.41-3.02-4.07-5.97-5.64-9.54l7.41-1.35c4.4-2.17,7.29,1.73,9.66,5.03,1.64,5.89,4.64,9.34,8.99,10.34,3.54,2.44,9.12,7.21,5.62,10.93,0,.95-.19,2.76-.27,3.77,2.58,2.61,5.4,5.04,8.47,7.29,3.55,5.94,7.47,11.64,11.77,17.09l1.06,3.45c.26,16.99,4.76,21.44,13.49,13.34,3.18-1.56,6.31-2.57,9.4-3.03l11.69-7.36c3.32-2.09,4.97-4.27,6.02-8.31,1.88-1.46,6.31-2.6,9.29-3.29l2.41-5.23c1.5-.78,4.18-1.2,4.54-2.32l1.57-4.85c.29-.89,3.41-1.6,3.19-2.51l-.95-3.92c-.32-1.34,1.63-3.14,3.46-4.38l1.29-6.35c.16-.81,1.78-3.04,1.11-3.53l-2.57-1.92-1.91,1.13c-1.57,0-12.08-3.3-11.76-4.89.1-.51.33-.99.6-1.47-1.46-3.02-1.87-6.4-2.88-10.66l-8.38,11.57-7.71,1.86c-4.68,1.13-2.33-21.95-8.08-7.17l-5.16-7.5c-1.8-2.62-6.07-4.97-6.82-8.12-1.04-4.37,3.08-8.39,6.6-9.46,8.12,15.08,2.35,10.25,18.18,16.83,6.87,2.86,6.86-4.85,13.14-3.82Z"/>
  <path class="st1" d="M771.63,280.29c4.64,3.55,6.09,8.73,8.42,14.06,1.33,3.04,6.53,5.31,3.39,10.1l4.03,8.66c3.05,2.87,4.91,5.33,3.74,9.88l-2.03,7.88c-.14.54-2.73.71-2.88.18l-.68-2.39-1.9-6.62c-7.28,3.79-3.28,14.93-2.51,15.04l3.27.49c-3.75,1.25-8.76,4.8-12.56,8.34-5.25,4.88-13.65.08-16.38,7.52,2.8,3-1.15,10.15-4.92,12.12-4.79.95-9.3,3.26-13.54,6.94-2.59,1.21-4.13.76-4.62-1.35-3.97-.96-2.9-10.68,1.32-9.87.12-1.52,1.33-2.28,3.63-2.28,1.55-3.88,2.96-7.73,4.21-11.56-1.39-1-2.13-2.77-2.22-5.31-1.63-2.11-2.15-4.06-1.56-5.84-.73.41-1.43.44-2.09,0-1.59-10.53-7.83-14.93-18.16-10.94,1.44,2.08-.46,4.37-1.99,5.81.95,1.98-.07,4.26-3.09,6.85.71,6.91.23,12.75-8.21,13.05-1.17,4.59-3.66,8.67-7.13,11.92-3,9.98-14.14,10.14-22.96,9.59l-2.79,1.33c-1.46,1.99-3.04,2.71-4.74,2.18-.2-.36-.79-.96-1.05-1.28l-1.96-2.8c-.43-.62-2.14.73-2.96.79-.96.06-2.65-2.03-2.34-2.91l1.27-3.65,1.28-3.68c2.52,1.45,5.61,1,7.69-1.19,5.22-5.49,8.44-6.32,6.23-9.03l-2.33-4.58c3.75-3.61,8.74-6.01,14.98-7.21,1.27-2.2,2.38-4.54,3.34-7.03,1.89-.23,6.2-2.84,5.68-4.78l-2.19-8.21,7.29-10.19c-.53-2.81.68-3.61,2.99-1.9-.52-3.93,5.05-6.19,8.13-4.25.19-4.23,11.13-2.59,10.89,1.27,5.65.08,11.41.6,17.28,1.57.98-3.67,2.19-7.25,3.63-10.76l-2.12-.91c.71-7.99,3.34-15.57,7.89-22.74l2.35-.1c5.55-1.87,14.82,4.63,19.01,7.83Z"/>
  <path class="st10" d="M643.26,324.96c-1.73,1.45-2.72,5.1-3.15,7.21-.88-.98-1.92-2.82-2.68-2.48-5.92,2.72-3.36,7.04-5.68,4.48-1.25-1.38-2.98-3.67-4.39-4.19-1.74-.64-4.57.05-6.01.62l-5.52-2.88-3.43-4.42.22-2.06.02-2.9c6.78-5.92,7.26-9.14,1.46-9.66-2.29-2.15-4.85-3.6-7.68-4.34l-.86-2.05c-2.43-1.18-7.45-6.02-6.23-8.79l2.16-7.24c1.83-6.13,14.2-9.72,16.05-11.95,2.51-1.99,9.05,2.92,6.09,6.54-7.64,4.34-9.39,7.52-5.25,9.56,5.97,3.03,11.25,6.68,15.83,10.98-1.14,2.13-1.66,4.23-1.57,6.28,5.23,3.31,9.12,8.35,11.68,15.12l-1.08,2.17Z"/>
  <path class="st11" d="M600.62,313.25c3.96-1.46,8.04,4.73,1.97,5.36l-1.03-.11c-5.2-.28-10.54,1.37-16.03,4.94-4.88,1.6-13.55,4.42-17.35,1.06-1.79,1.26-3.14,1.07-4.07-.58l-2.33-.28c-9.87-6.35-15.12,4.83-7.11,12.03,1.74-4.64,3.46-5.8,5.15-3.48,1.74-2.32,3.56-1.28,2.99,1.51-.35,2.56-9.79,8.81-14.43,2.89-.53-.68-2.64-1.98-3.04-1.31l-1.46,2.42c-1.3,2.16-3.36,4.13-5.11,3.42l1.74-2.5c.31-.45-.97-1.95-1.34-1.54s-1.28,1.56-1.59,2.03l-1.15,1.73c.29-.44-8.43-9.15-5.78-13.91l-.46-2.68c-.1-.57,1.07-1.76,1.42-1.98,2.44,2.38.9-2.41,5.1-2.99,2.2-1.07,4.82-1.56,7.87-1.48,5.41-7.77,14.43-10.18,21.28-2.45l6.07-1.89c6.24,1.26,12.2,1.22,17.88-.13,4.81-3.34,8.42-3.37,10.83-.08Z"/>
  <path class="st13" d="M589.39,447.12c1.39,1.27,1.96,3.34,1.73,6.21,1.37,2.14,1.77,4.04,1.18,5.69-1.28-.26-3.05-.55-4.13-.52s-1.65,3.68-2.22,4.38c-9.9,2.58,1.76,1.4-14.1,6.83l-7.37-4.39c6.87-8.89-2.34-15.02,6.16-17.04l10.98-2.62c1.84-.34,6,1.1,7.78,1.46Z"/>
  <path class="st11" d="M638.73,450.42c-2.3,1.45-4.22,4.31-7.94,4.46l-6.6,4.21c-2.12,1.35-5.64.86-6.59-1.81-1.25-3.54-3.54-8.63-3.62-11.73-.12-4.64.51-6.72-2.56-10.17-7.95-8.93-7.5-13.84-13.86-18.13-2.06-1.39-3.21-2.72-3.03-4.95,1.51,1.07,4.92,3.36,6.64,2.79l5.73-1.91c.18,2.61.18,5.09,1.01,6.42,4.15,6.65,9.15,16.02,11.47,22.76,3.9,11.31,11.46,4.23,19.36,8.07Z"/>
  <path class="st9" d="M572.84,406.13l6.6,4.55c2.79,1.92,3.78,7.68,3.29,10.61-.28,1.71-.44,2.74.86,4l-.1,1.15-2.24,2.57-3.27-10.62c-.74-2.39-5.63-5.14-8.06-4.89-8.65.91-4.31-3.23-11.8-5.99l2.21-7.81c1.1,1.01,1.84,1.51,1.65,1.03-1-5.29-2.61-10.4-.78-14.62.86-1.99,2.71,3.27,6.85,7.48,7.42,7.54.67,9.69,4.78,12.52Z"/>
  <path class="st11" d="M630.64,351.45c.5,2.01-1.37,3.32-5.6,3.94-1.88-2.07-2.69-2.44-2.44-1.11-.06.85-.55,2.59-1.2,3.13-.78.64-2.96-.19-3.68-.9l-4.03-4.02-3.12-5.57c.64-9.24-4.63-7.53-6.09-13.63l4.2-4.18,5.75,6.54c10.89,12.38,10.63,6.51,16.2,15.81Z"/>
  <path class="st13" d="M605.57,302.29c3.58-.01,6.35,2.14,9.49,4.65l7.13,2.47c-3.01,4.71-6.07,8.26-9.57,11.82l-4.65-2.53-5.39-.1,1.8-1.74c-1.49-1.21-3.12-2.56-3.77-3.62-3.99-1.72-4.8-3.32-.83-5.97-7.75-5.96,1.34-9.88,5.78-4.98Z"/>
  <path class="st2" d="M601.56,318.5c-7.83,2.47-18.17,8.23-25.53,13l-5.59,3.62c-2.5-.84-5.08-1.38-7.64-1.41l-2.99-1.51c-4.42-1.07,5.37-10.17,8.36-7.69,8.62-.38,19.04-2.8,26.88-7.28,2.29-1.31,5.87-.6,6.5,1.28Z"/>
  <path class="st9" d="M666.71,391.21c1.58,3.26,8.32,1.7,13.07,5.23.04,1.94-.37,4.89-1.25,6.85l-22.32-.63c.68-3.61,4.35-5.44,6.11-7.35.54-.59,1.24-2.68,1.66-3.31s1.82-.71,2.73-.79Z"/>
  <path class="st11" d="M589.59,388.12c1.25,1.08,1.21,2.3.08,3.25,2.36,2.85,4.25,5.75,5.7,8.69,2.2,1.03,2.46,8.07,1.56,8.19l-2.13.27c0-2.88-3.5-8.23-6.31-9.06-2.1-.61-5.18-1.4-5.89-2.89l-3.05-6.33c-1.97-4.09-4.8-6.87-9.03-8.02,2.34-3.37,8.11-2.12,11.75-1.04l-.3,6.79,7.61.16Z"/>
  <path class="st11" d="M592.46,439.23c.81,4.04,4.26,11.78,8.94,12.33l4.72,3.98c1.74,3.64-1.25,7.91-4.46,5.41-1.46.84-2.65.32-3.56-1.59-1.63,1.73-3.16,2-4.58.8l-1.21-1.14c-3.43-3.23-4.09-7.45-2.91-11.91l1.34-1.37c.24-.24-.87-1.4-.96-1.75l-1.35-5.52,4.04.75Z"/>
  <path class="st9" d="M595.37,400.06c-3.14-1.58-6.73-5.24-7.61-8.6.13-.87,1.2-2.78,1.83-3.34,1.88-1.65,5.68-4.8,7.98-6.43,1.96-1.39,7.23.31,6.01,2.11-1.35,1.98-3.93,3.6-3.84,5.1l.35,5.82c-.28.68-4.19.23-4.29,1.24l-.42,4.11Z"/>
  <path class="st13" d="M646.62,367.21c-2.03-.68-4.88-.49-6.06-3.05-2.22-4.87-7.38-8.65-12.42-8.36-.93.05-3,1.48-3.49.9l-2.06-2.41-2.2-.6c1.43-.83,2.25-1.49,2.66-1.2l2.07,1.51,5.52-2.54,4.93,2c5.36,2.18,12.57,7.98,11.05,13.76Z"/>
  <path class="st1" d="M605.67,592.31c1.23.93,3.4,1.88,5.41,2.59l16.37,5.7c2.29.8,7.22-3.32,9.46.88l5.74-1.97c1.09,1.88,3.21,6.56,5.26,7.29,11.33,4.05,13.75-8.26,20.2.82,4.65,6.54,8.22-1.03,11.48,6.4,3.82,8.7,10.7.16,12.36,3.4l1.42,2.79c.81,1.58,7.73-3.52,11.07,8-2.75,1.52-5.41.14-7.7-2.01l-4.01-2.22c-3.93-2.18-8.92-5.14-13.29-1.49l-2.37,1.98c-1.82,1.52-3.79-8.3-12.25-9.26l-2.03,5.22-8.05-6.09c1.64,1.24-12.42-5.62-11.1-3.86-1.72,2.39-4.87.58-4.14-2.19-3.72-.78-7.33-1.78-10.84-3-12.39-4,.12-1.56-16.39-6.94-1.34-.44-4.43.3-5.84.31l-9.16.05c-3.85-2.79-14.67-6.08-19.1-4.96-.92-.26-2.05-4.06-1.87-5.6l13.44-.31c6.95-.16,8.78,5.52,15.92,4.46Z"/>
  <path class="st13" d="M639.5,608.3c-.09,2.34-.3,4.84-.64,7.5-3.81,10.4-7.37,20.85-10.69,31.35l-2.63,2.25c-.05.19-.05.55-.08.74l-1.96,1.04c-1.58.24-4.73.5-6.1-.31-1.21-.72-2.72-3.89-2.71-5.38l.08-12.19,6.63-5.37-1.41-11.1c-.32-2.51,1.26-8,3.56-9.09l5.11-2.44c3.68-1.75,8.83-.76,10.84,3Z"/>
  <path class="st2" d="M643.64,610.48l-9.74,26.11-3.06,10.05c-.46,1.52-3.99,2.85-5.3,2.74.68-2.57,1.85-7.78,2.83-10.45l3.13-8.49c2.01-5.46,6.19-13.05,5.53-18.72-.15-1.24,1.85-3.29,2.46-3.45l4.14,2.19Z"/>
  <path class="st2" d="M625.47,650.13c-.05.36-.18.9-.51.93l-1.45.11,1.96-1.04Z"/>
  <path class="st9" d="M652.44,468.42c-.1,2.09-.17,5.06-1.09,7.3l-3.62,8.76-8.42,17.83c-.87,1.83-8.57,12.01-10.7,13.04l-.33-1.48c-.32-1.44-8.39.35-13.75-1.77-6.92-.69-10.8-7.13-6.8-13.78-3.7-2.77.85-7.37,3.89-9.39,1.73-3.17,2.2-6.74,1.41-10.7-7.42-1.72-10.15-6.08-1.57-8.64.28-.08.68.24,1.12.69,3.5-1.91,7.64,2.09,8.81,5.21,3.14.95,5.95-.31,8.45-3.78,4.06-.39,7.8-1.66,11.22-3.82,3.07-.94,10.6-3.18,11.38.53Z"/>
  <path class="st11" d="M614.53,512.1c-7.28,4.06-1.17,6.23-6.31,11.82-1.47,1.6-2.8,3.99-2.92,5.96-.35,5.96-3,9.68-5.2,14.99l-3.5,8.42c-1.31,3.15-2.63,4.99-4.25,8.55-.88.27-6.72-.12-7.35-1.95l-2.72-7.93c-2.45-7.13,1.8-18.06-4.36-19.89-2.6.24-2.59-.63-.25-1.75.5-.19.82-.31.57-.22l-.26-3.06c-.04-.54,1.44-.75,1.82-1.13.83-1.7,2.46-1.69,4.89.04,2.03-.15,3.14-2.06,3.35-5.71,2.96-2.58,2.13-3.88-2.48-3.91-3.59,3.03-5.59,2.99-6.01-.13l2.57-10.11,3.32,3.16,1.07-5.07,3.36-2.25c2.17-2.92,4.16-1.88,5.99,3.12,2.35,1.22,5.06,1.14,6.78-1.11,1.07-5.26,2.77-7.14,5.09-5.63-1.29,12.45,4.53,8.24,6.8,13.78Z"/>
  <path class="st9" d="M564.23,625.59c-1.78,5.62-4.04,6.39-12.48,9.15-2.46-2.82-3.39-8.88-1.17-11.54,1.66-1.99,8.24-9.77,10.46-8.04.78.61,1.64,1.5,2.9,2.89,2.08,2.29,1.18,4.71.28,7.53Z"/>
  <path class="st10" d="M577.67,530.33c.15.26.28,1.87.25,1.75l-4.23,10.02c-.45,1.09-4.44,1.54-5.06.53-2.23-3.65-2.81-11.25,1.86-15.17.85-.71,4.34-1.59,4.98-.69s1.56,2.44,2.19,3.56Z"/>
  <path class="st5" d="M579.81,525.92c2.77-2.67-2.12-2.37-.26-9.71,5.72,2.06.86-5.48,13.97.47l-3.85,4.55c.11,3.28-2.17,8.2-5.89,6.51l-3.98-1.81Z"/>
  <path class="st5" d="M643.26,324.96l-7.25-13c-1.55-.84-4.71-2.08-5.18-3.58-.75-2.38.02-4.99,1.84-6.88l-11.96-7.4c-2.08-1.29-7.3-3.62-6.76-6.78.61-3.56,5.93-5.43,8.12-7.66,1.79-1.82-2.29-6.22-4.53-5.36.35-.42.21-2.11.72-1.94,4.53,1.58,5.67,3.95,7.55,2.47l3.41-2.68c.78-.61,3.57.54,4.42,1.31,6.21,5.67,8.52-4.33,13.93-3.04-1.24,2.82-1.69,3.89-2.07,5.73l2.71-3.01c.56-.63,3.45-.06,4.16.4,8.72,5.61,16.42.57,16.41,3.44l-.02,3.4c0,1.21.06,2.88.14,3.7.06.57,5.33,1.67,4.26,3.48-2.11,3.56-5.67,5.01-3.88,9.52,2.16,5.44,8.8,2.96,10.17,6.81,1.28,3.6-7.39,2.86-7.47,7.39l-.14,7.2c-4.05,1.37-9.6,3.02-13.84,2.44-10.86-1.48-4.87,2.27-14.76,4.02Z"/>
  <path class="st5" d="M752.62,272.45l-2.81,5-4.2,10.01c-1.4,3.33-1.59,5.24-1.11,8.74-.41,3.78-2.55,7.01-6.48,5.57-4.36,2.65-9.34,3.9-14.43,3.62-3.48-1.22-7.46-2.26-10.89-1.27-3.69,1.27-10.45-4.92-7.02-7.8-1.04-2.45,3-4.15,5.07-4.92,4.27-.53,5.85-5.31,8.8-7.99,8.34-7.56,21.31-2.29,19.53-15.6l-6.43-1.89,2.38-6.93-2.77-.26c-.68-.06-.85-2.74-.73-3.41l.53-3.05c.11-.61,1.73-.64,2.59-.92l1.86-.61c.37-.12.36-1.16.27-1.54,1.1.56,3.15,2.05,3.69,3.21l2.32,5.01,9.2,1.12-.31,6.23,4.17-.96-3.2,8.63Z"/>
  <path class="st11" d="M609.46,247.34c3.88,1.41,8.15,1.99,12.35,2.23-.3,15.77-1.23,3.9-6.76,16.39-2.44,5.52-7.93,9.53-13.76,12.94-1.12-4.56-.9-8.78.02-12.88l1.48-6.6c.45-.13,2.24-1.68,2.49-2.55l2.42-8.41,1.77-1.13Z"/>
  <path class="st2" d="M700.69,287.38c.34-2.26,2.42-2.28,4.2-1.24,5.57,3.29-.73,10.38-4.3,5.97l.17,2.63c-7.43,2.84-11.53,6.86-.55,7.9,2.7,1.14,6.32,2.66,4.37,5.75-.79.57-2.1,1.4-2.99,1.9l-.53-2.03c-.1-.4-2.26-.76-2.71-.66l-8.8,1.86-4.62-5.43c.35-1.03,1.65-2.7,1.11-3.48l-2.1-3.02c4.61-1.73,4.66-7.97,9.66-9.09l4-.9,3.09-.17Z"/>
  <path class="st11" d="M690.8,333.46c.09,1.97.14,5.74-.92,7.3-3.51,5.15-12.02,1.7-15.98,8.28l.91,3.25c-9.18-8.93-7.39-24.16-4.87-20.24.34.52,1.11,2.6,1.61,2.96,3.65,2.58,12.74,2.92,17.15,1.2l2.1-2.74Z"/>
  <path class="st11" d="M710.75,291.4c.81,2.01-3.34,4.36-5.07,4.92-2.36,3.43-8.97-1.41-5.1-4.22,1.98.35,4.5-1.06,5.11-3.61-1.56-.55-3.9-1.19-5.01-1.13l1.48-5.84,2.32,1.37,3.92-7.56c.25-.49,2.17-1.72,2.48-1.23l1.38,2.18,3.92-3.15,6.58-1.98-1.36-5.88,7.54,3.19c.77-.11-.76,2.4-1.51,2.24s-2.03-.75-2.29-.91c-.88,1.32-2.68,2.91-4.33,3.42-3.06.96-5.32,3.99-3.65,5.83,2.64.74,3.49,1.81,1.11,1.93l-2.99-.72c2.28.55-7.28,4.32-4.55,11.12Z"/>
  <path class="st11" d="M697.59,287.54l-4,.9c.46-.91,2.67-1.16,4-.9Z"/>
  <path class="st6" d="M459.09,717.55l3.37,46.72,1.12,9.25c-5.55-1.36,2.5-9.09-6.95-11.63-6.8-1.83-14.31-9.09-19.5-11.79-7.47-3.89-16.58-1.12-24.35-1.01l-10.2.15-8,1.04c-1.37-3.39-4.57-8.02-4.41-11.56l.29-6.53c.24-2.94,3.43-2.73,4.11.08.92.63,1.92.6,3-.09l.57-2.28,8.58-2.53c6.82-2.87,13.85-6.62,21.77-6.92,4.6-.18,9.09.14,12.8-2.62,7.58-5.64,13.15-.49,17.78-.28Z"/>
  <path class="st6" d="M411.99,500.3c2.39-1.51,7.3-1.93,9.67-.16l2.48.09c1.74,3.09,3.02,6.37,3.81,9.85,4.08-.71,8.2-.16,12.35,1.65,2.03-.57,3.74-.5,5.14.21,1.46-.89,4.81-.74,5.13,1.22,1.3,2.97,1.3,6.13.03,9.11l-1,.35c-4.26-4.12-10.02-1.09-11.72,3.31-2.66.04-7.89,2.02-10.51,3.13-10.72-5.77-19.26,1.6-19.82-1.6l-1.18-6.73-3.64-.2c-3.45-.19,2.71-8.02-3.19-13.61.68-2.23,4.47-5.69,6.16-6.6,1.05,1.43,1.87,2.37,2.5,2.03l3.79-2.06Z"/>
  <path class="st6" d="M451.59,526.28v1c-4.22,1.66-8.54,1.75-12.09-1.18-2.86-4.68,7.87-7.83,10.46-3.35,2.52-.04,2.3,1.32,1.63,3.53Z"/>
  <path class="st8" d="M450.59,522.28l2.68-.7c-.19,1.96-.7,3.55-1.68,4.7,0-.55-.78-2.18-1.47-2.48l-4.93-2.11c-1.83-.29-5.04,2.71-5.69,4.41-.44-.06-1.22-.17-1.63-.16l-1.07-2.87c-.23-.61,2.03-2.06,2.66-2.22l8.59-2.22,2.55,3.65Z"/>
  <path class="st12" d="M450.56,513.17c-1.42-.42-3.58-.94-5.13-1.22-2.78-2.9.9-3.13,3.07-1.32.78,0,2.62.34,3.02-.33l1.91-3.18v5.32c-.01.76-2.12.95-2.88.73Z"/>
  <path class="st13" d="M796.82,378.38c-.49.21-1.85.79-2.23.33l-1.98-2.36c-1.47-5.16-3.57-4.86-6.3.89l-5.48,2.41c-4.81,8.61-8.79,17.59-11.96,26.92-4.1,4.01-5.9,8.49-5.39,13.43,1,3.49,1.72,6.94,2.16,10.37l-.03,2.71c-2.99.85,2.07,11.51-2.73,16.08-5.44,1.83-9.3-6.51-7.75-11.67-1.72-1.3-3.62-2.87-4.82-4.67-6.48-9.7-10.81-20.74-14.31-31.73-.05-.43-.15-1.29-.17-1.72.39-1.03.34-2.09-.17-3.18-.26-1.88-.82-4.86-1.2-6.27-1.91,3.9-2.45,7.94-5.73,8.07-2.1.08-6.15-3.1-6.59-4.12,1.01-2,1.8-3.78,2.48-5.4l-.7-2.71c4.37-3.58,6.59-7.96,6.66-13.15l1.85-1.49c3.12.25,6.01-1.02,8.46-3.58,6.43-6.74,10.15.47,13.09-9.95.39-1.38,1.15-3.12,1.54-4.18,19.67,6.86,28.77-7.78,32.12-6.25,4.22,1.93,1.56,7.43,6.73,11.42.11,2.44.04,6.13.46,8.5l1.99,11.29Z"/>
  <path class="st1" d="M821.67,404.98c-1.05.23-2.74,1.48-3.62,2.46s1.23,3.73,1.08,4.98l-1.65,13.47c-.13,1.04,1.67,3.82.99,4.48-5.1,4.94-8.83,5.1-8,11.99.22,1.8-1.81,4.95-2.09,6.49l-2.04,11.1c-1.73.26-4.97.65-6.42,1.11-1.6.51-2.42,4.09-2.45,6.28-.09,6.6-5.63,4.14-4.88,8.94l-6.29.95c-1.18-1.47.96-4.28,2.75-5.62l1.31-8.56c5.63-3.36,6.31-9.92,4.04-15.11-.75-1.72,1.46-5.37,1.7-7.05l1.01-7.03,4.83-3.02,4.07-7.08c2.01-3.49,4.2-6.08,7.35-9.16.41-2.38.66-6.86.46-9.48,4.35-.34,5.31-13.54,6.17-8.89l.38,2.06,1.29,6.67Z"/>
  <path class="st10" d="M792.61,376.35c-.81-.97-1.67-2.32-2.61-3.89-3.6,9.39-9.32,4.69-10.3,11.17-1.57,10.43-4.23,4.42-9.31,20.27-1.04,3.26-2.23,5.12-4.4,8.02-5.07,6.77,2.9,17.54-.35,18.45l-1.18-3.14c-1.92-5.11-3.72-12.07.38-16.74l3.61-4.1c.71-.81-1.03-3.35-1.54-3.66,6.6-.73,2.4-9.05,9.02-15.99,7.46-7.81-.87-6.88,10.09-9.88l4.29-7.05,2.29,6.53Z"/>
  <path class="st0" d="M565.39,157.3l-.29,1.3c-2.49,0-4.9.56-7.21,1.68.58-3-2.16-9.85-5.71-9.38-7.7,5.28-3.69-6.67-15.57-5.76-.93-1.38-2.72-4.89-1.77-6.33l4.47-6.74,4.29-1.64c1.3.29,3.46,1.93,4.92,2.7l5.34,2.79,2.33,5.49c3.22-.87,6.56-1.64,8.8-.32,7.19,4.24.03,11.41.41,16.21Z"/>
  <path class="st10" d="M565.39,157.3l6.12,5.45c1.17,1.05-.03,4.65-1.03,6.03-.82,1.12-3.66,2.17-5.04,1.93l-1.91-5.1-4.88-1.74c-.87-.31-.94-2.68-.77-3.59l1.11-4.06,6.4,1.08Z"/>
  <path class="st13" d="M601.66,460.96c2.69-.12,4.39,2.22,5.08,7.02,3.07-1.79,5.42-2,7.04-.63l-1.18,1.93c.87.28.86.62,0,1l-5.64,3.39,8.32,3.29v5.26c-.02,12.26-5.84,6.05-7.53,16.1-3.73,1.63-.49,6.53-6.58,9.14-2.11.9-6.54.09-7.33-1.82l-1.24-2.99c-.29-.71-1.98-.81-2.7-.72.94-3.07,3.08-5.09,6.69-4.89-1.37-2.28-3.74-6.67-2.13-8.52,2.24-2.57,3.74-4.86,3.72-7.69-.02-6.05-8.14,1.52-4.67-20.66l5.14-3.65,3.01,4.43Z"/>
  <path class="st10" d="M573.72,293.56l10.7,3.47c22.88,9.31,4.95,18.87-9.63,15.63-10.78-5.16-19.56-5.31-29.01,2.57l-2.17-1.04c-4.6,1.26-10.61-.88-11.44-5.91-.29-1.76,12.05-28.61,17.6-22.2.19,2.21.32,4.71.81,6.34.36,1.19,3.11,2.88,4.17,2.11,8.96-6.59,10.27-1.8,18.97-.96Z"/>
  <path class="st2" d="M599.34,293.51l3.14,3.08c1.45,1.43,2.71,3.81,3.09,5.71l-7.88.03,5.32,5.17-4.17,2.86,1.79,2.89c-1.83-.83-4.76-.86-6.61.24-13.12,7.75-20.39-2.79-29,5.02-1.41-4.02-3.69-5.07-7.39-5.62-12.89-1.93-5.38,10.86-20.93,6.41.47-2.39,1.19-1.74,6.92-5.11l9.4-5.53c5.7-3.35,13.37-1.57,19.08.95,10.86,4.8,22.65-.9,21.37-4.56-.24-.69-1.45-2.38-2.33-2.78l-15.52-7.07c-.7-.32-1.75-1.28-1.89-1.63,7.13.69,14.26,2.17,21.89,3.6l3.73-3.65Z"/>
  <path class="st2" d="M503.55,322.92c.15-3.19.08-8.82-.03-11.77,2.69-.9-2.04,2.9,5.31,6.18.75.7-.1,3.88-1.09,4.69-.85.69-2.99.8-4.18.89Z"/>
  <path class="st12" d="M406.74,727.38c-2.31,2.31-5.98,3.86-9.15,4.81-1.08.53-2.01.96-3,.09l-4.11-.08c-3.43-1.19-7.13-3.76-10.12-5.8-6.56-15.61-7.06-13.72-18.9-15.98-12.74-2.42-10.03-10.89-38.21-8.45-4.92.43-9.2,8.52-14.56,3.72-1.98-1.78-2.87-6.25-1.31-8.17,3.18-3.91,1.25-6.22.35-10.05-1.06-4.49-2.52-7.9-5.63-11.8-1.16-1.45,1.07-5.33,2.77-5.86,8.27-2.59,8.48,5.03,12.29-.66,1.75-2.62-1.9-3.28-4.19-6.38-2.04-2.75,9.58-6.83,13.61-1.68,1.1,1.41,1.71,6.14,3.37,6.5l8.51,1.83c3.3,7.42,9.88,11.64,17.01,14.87,4.45,2.01,7.8,5.71,11.48,8.44l7.51,5.57c6.87,5.1,13.66,10.41,15.46,19.83,1.77,9.27,9.67,9.22,16.82,9.24Z"/>
  <path class="st12" d="M245.32,492.07l.15-1.8c1.3.38,3.83,1.74,3.9,3.11s-.29,3.37-.62,5.52c-.31,2.03,2.58,5.65,3.26,7.79,1.86,5.91,3.92,9.98,8.31,14.77-7.43-2.97-13.84-7.07-18.04-13.87-3.09-5.01,2.59-10.32,3.04-15.52Z"/>
  <path class="st8" d="M439.57,505.39l.48,2.56c.13.67,7.84-.78,8.46,2.68l-2.13.03c-.47,0-.71.86-.94,1.29-1.33,1.32-3.95,2.2-5.75,1.68l-7.47-2.15-5.95.89c-1.03-5.06-2.09-8.79-4.6-12.22-2.38-2.83,1.17-5.32,4.4-4.77,3.82,2.98,7.45,5.84,10.89,8.57,1.79-.38,2.66.1,2.62,1.44Z"/>
  <path class="st7" d="M439.57,505.39c-12.87-1.2-12.72-13.97-17.91-5.25-2.76,1.23-7.13,1.55-9.67.16l.95-7.16,3.04,2.57c14.7-6.42,12.88,2.27,14.62.24l2.19-2.56c-.54-.25-.5-.55.04-.89,2.69,1.62,5.2,7.08,4.18,10.56l3.07-.84c.5-.14.23,1.52.03,1.98l-.53,1.2Z"/>
  <path class="st12" d="M287.95,513.48c.5,2.77-5.32,6.09-8.05,6.13-3.14.05-8.87-2.29-9.13-6.41.38-1.6,15.88-6.89,17.19.28Z"/>
  <path class="st6" d="M264.52,456.15l2.19.75-3.87.56c.01-.31.22-.87.48-.95l1.2-.36Z"/>
  <path class="st12" d="M432.82,492.5l-.04.89c-1.47-.61-2.83-1.56-3.38-2.96l3.42,2.07Z"/>
  <circle class="st12" cx="380.09" cy="501.78" r=".5"/>
  <path class="st6" d="M464.59,117.14c.3-.03.76-.11,1-.09l1.87.09c.26.01.67.14.99.21l-.91,5.99c-1.71,11.33-3.86,22.84-4.63,34.95l-3.96,62.18-.78,18.01c-3.44.37-5.99-1.42-9.35-3.42-6.62-3.94-20.59,4.93-18.99-2.61,5.18-1.18,11.47-2.67,16.59-3.26l6.4-.74c-3.2-9.03-17.45,3.25-19.63-3.45-2.87-8.87,3.72-16.88,11.89-19.36,10.38-3.15,9.5,1.6,12.67-2.44-3.66-2.69-8.24-2.28-12.38-.96-4.66,1.48-8.91-.89-13.23-2.19-3.67-1.1-6.54-1.84-10.63-3.53,8.63-8.57,11.82.27,25.44-11.91,2.54-2.27,5.5-4.05,8.84-6.43-6.49-3.65-11.09,3.58-14.85,5.29l-19.36,8.82c-3.87,1.76-7.48,4.33-12.02,4.12-1.29-.06-4.16,1.51-4.3,1.97,8.35,4.38,3.8,7.8,14.41,5.88,1.75-.31,4.97.13,5.81,1.38.77,1.15.64,3.96-.08,5.3-4.71,8.81-1.23,10.54-5.21,11.4-1.12.24-2.72-2.28-3.73-2.83-6.98-3.76-15.22,2.3-17.51,8.86-1.09,3.13-3.91,3.65-3.24,7.09s5.46-1.08,17.57,1.91l17.28,4.26c4.31,1.06,16.92,11.32,26.73,11.91l-1.07,27.71c-8.36,2.85-16.76,6.2-24.47,11.16-3.7,2.38-2.04,6.43-1.13,10.14,1.15,4.66-5.24,6.89-7.74,11.72-1.28,2.46,3.9,5.08,3.82,8.49-.11,4.61-8.14,7.78-10.53,16.28l-5.27.83c-.61.09-1.93.81-2.42,1.15-2.37,1.67,4.71,4.59,7.58,8.65.72,1.02-1.64,4.01-2.86,4.41l-23.75,7.89c-.62.21-2.33,1.55-1.92,1.86l2.84,2.17c-10.32-1.81-3.26,3.45-16.82,5.94l17.01-.52c5.46,2.86,19.53-6.74,28.75.07l-4.86,3.82-9.56,1.17c-.61.08-1.33,2.32-1.26,2.51l-4.19,1.67c4.81,3.28,10.49,4.63,16.24,1.24,2.88,3.93,1.05,7.4-2.58,10.17l-3.86,6.35-8.85-1.68,3.64-3.96c-10.27.57-4.28,8.66-12.46,12.72-4.29,2.13-4.79,8.47-1.3,11.44-1.69-14.81,5.29-6.57,9.02-17.39,6.76-1.28,3.51,2.83,12.89.59l-2.91,1.63c-.91.51-2.6,1.12-2.66,1.86s1.27,1.9,1.94,2.24l2.3,1.17c1.72.88-6.05,4.92-7.04,8.09l-13.12,2.08,4.8,5.13c-.09.36-.22,2.4-.78,2.22l-2.65-.84c-.49-.16-1.72-1.91-1.92-1.44l-1.18,2.79c.52-2.71-3.32-5.97-5.53-6.23-.55-.06-1.1,1.72-1.64,1.68l-2.62-.21c-2.84-.23-8.27,1.54-11.35,1.86l-5,2.64.83,1.98c.16.38-.46,1.59-.42,1.4l-2.09-3.21c-1.53-4.76-7.09-6.71-12.2-3.73-3.66,2.14-5.96-5.49-7.86-2.8l-1.8,2.53,5.71,2.58c-1.47,2.68-7.71,1.27-7.87,2.68l-.44,3.9c-1.92.34-2.92,2.08-3.74,4.08l-1.22-3.41c-.22-.61-2.35.03-2.38.7l-.1,2.26-7.74-.62c-4.14-.33-7.86,1.41-9.99,4.95-3.29,5.47-6.5-6.15-12.12-4.33-.78.78-2.46,2.95-2.87,3.95l-2.33,5.67c-1.7-2-2.21-4.09-1.97-5.51-3.75.82-8.08.4-13.01-.59l-1.46,4.9-2.88-1.73c-.58-.35-1.95.75-2.42,1.04l-4.31-1.33-.21-5.69c.8.37,4.52.96,4.93-.26s.31-4.42-.47-5.27c-.65-.71-2.41-1.11-3.66-1.31l-1.99,5.96-4.96-4.91c-2.76,1.66,1.99,10.77,5.65,11.42-.54,1.31-1.9,4.36-2.46,5.77-.21.51-2.16.93-2.67,1.15s.32,1.7.3,2.23c-.22.38-1.1,1.18-.82,1.56l1.58,2.24c-2.66,1.88-5.87,2.63-9.74,2.63l3.58,1.72c1.04.5.07,3.89-.63,5.05l-1.58-4.21-.62,2.02c-.44,1.45-3.11-.62-3.29,1.68l-.24,3.01c-1.69-3.09-3.22-6.54-6.17-7.48s-5.71.21-6.18,2.39c-.56,2.61.38,3.66,3.4,5.94l-3.5,1.8-4.99-4.49c-4.14.06-8.7,1.95-11.57,4.25,4.12.75,7.3,1.57,7.24,4.7-.08,4.06-.07,7.44.27,10.93-2.23.05-3.61-1.86-4.78-4.84-.92,3.39-2.37,5.64-5.11,7.13-.94-4.25-5.02-6.21-10.33-5.87l7.26-10.43c.32-5.19-2.06-10.69-3.5-15.44.59.01,4.07.36,4.58,1.29l4.75,8.78c4.44-1.33,1.45-4.45,1.16-6.86-.45-3.69.94-8.8-3.36-11.06-2.13-1.12-3.64-2.63-3.75-5.06-.07-1.76,3.34-3.59,5.3-3.08,1.44.37,5.45,2.11,6.2.79,2.88-5.07,7.22-16.86-.75-20.38-7.3-3.23-6.05-10.28-5.26-16.4.52-4.03-2.84-8.34.76-12.4-7.41,6.58-12.99-.32-14.81,3.5l-2.65,5.58-2.26-6.53c-2.45-7.07,6.35-4.22,4.05-11.76-.34-1.12-.51-5.16.44-5.81l4.1-2.78c-.89,3.22-.63,3.3.89,1.45.49-3.47-.83-9.72,1.02-12.92l6.57-11.37c.71,4.95,2,10.46,5.32,14.12.82.89,3.94-1.03,4.93-1.94,3.52-3.25,7.68-6.88,11.73-10.17,9.15-7.42-4.14-12.62,15.36-28.87,3.08-2.57,5.91-6.25,7.29-10.17,9.23-26.24,5.92-9.7,5.86-37.21-.04-17.58,8.98-18.79,8.8-36.91l-6.57-.93,11.48-13.67c1.17-1.39,2.51-4.02,2.64-5.55l6.66-2.11c3.34-.16,6.33-.14,8.81-1.77,6.02-3.96-4.62-7.06,15.46-14.88l-7.86.61,3.67-4.38c.52-1.9,1.62-3.5,3.45-5.03,19.77-16.48,40.29-30.67,63.06-42.88s47.85-20.76,72.59-28.54l12-1.12Z"/>
  <path class="st6" d="M416.55,395.85l-1.68,2.46c-.18.26-1.05-.73-.9-1.01.16-.32.73-1.36.92-1.58.29-.33,1.55-.03,1.67.13Z"/>
  <path class="st6" d="M208.58,432.39l1.35-8.21c1.25,2.73.82,5.74-1.35,8.21Z"/>
  <path class="st3" d="M314.74,456.35c-3,2.23-6.4,2.18-10.57,1.1-6.94-1.79-7.79,4.15-20.53-2.67-.52-.28.59-3,1.13-2.77,2.35,1.01,8.37,1.79,10.24.04.48-.45-.76-2.03-1.36-2.3l.53-1.96c.08-.3.89.17,1.72.39,10.96,2.83-.87,2.81,18.48,3.19l.36,4.97Z"/>
  <path class="st4" d="M354.41,428.11c1.64.39,2.13.76,1.41,2l-12.09.14c-1.2.01-3.08.35-4.14.03.24-.24,1.84-1.05,1.46-1.39l-1.45-1.32,14.81.55Z"/>
  <path class="st6" d="M310.25,444.06c-2.59,2.16-5.52,1.17-6.91-1.71,2.44,0,4.43.44,6.91,1.71Z"/>
  <path class="st6" d="M298.97,439.74c-.21-.28,2.01-.86,2.17-.49s.38,1,.52,1.47c.11.38-1.29.96-1.52.63l-1.16-1.61Z"/>
  <circle class="st6" cx="386.09" cy="421.78" r=".5"/>
  <path class="st3" d="M250.17,470.29l1.09,3.79c-3.43-.28-6.61.18-7.13-3.34l6.04-.45Z"/>
  <path class="st11" d="M741.6,347.4c2.91,1.79-2.58,13.95-3.55,13.93l-4.29-.08c-3.08-1.03-5.55-2.36-5.64-6.05-6.1-.91-12.23.55-18.39,4.36l2,14.37c-1.01,2.72-4.05,5.28-5.97,2.31-13.81.98-13.97,8.83-29.37,6.5l-6.51-.98-3.22-5.72c8.95-12.16,13.19.81,27.29-10.08.36-1.11,1.14-3.89,1.92-4.64,8.57-8.22,4.16-12.38,9.52-12.46,2.99-.04,5.51-2.15,5.34-5.56-.08-1.55-.75-5.55.21-6.69l4.63-5.49c.73-1.32,7.48.7,8.52,1.3,4.8,5.24,10.19,9.47,16.17,12.68l1.34,2.3Z"/>
  <path class="st1" d="M698.24,513.37c-10.97-2.88-20.01.93-20.11-5.23l-.12-8c3.36-2.85,11.88,1.73,15.79-2.41s9.4-5.67,14.29-2.27c5.73-10.73,12.54-.73,15.3-6.23,5.07-10.09,11.3-1.05,14.59-9.93,1.2-3.23,9.53-4.08,15.75-9.09.04,3.18-2.19,5.39-5.16,7.69l4.9,1.05-5.72,6.65c-2.99,3.47-6.11,8.37-10.21,10.49-1.25.65-5.35.06-6.02,1.22-1.07,1.85-3,5.06-4.21,6.54-6.27.26-12.81,1.95-17.74,4.68l1.47,3.03c.63,1.3-10.09,2.51-12.79,1.8Z"/>
  <path class="st5" d="M733.76,361.25c-1.74,1.93-1.91,7.22-1.32,9.87.51,2.31-.35,7.44-1.55,9.56-1.55,2.74-5.16,5.18-6.26,7.79-2.87,1.1-5.98-.4-8.54-2.57-4.7-1.95-8.52-5.13-10.34-9.65,1.16-.08,3.19-1.19,3.85-2.14.77-1.12-.57-4.5-.76-5.94l-1.35-10.23c9.61-1.85,7.63-5.77,19.1-5.18.77.04,3.22.72,3.35,1.42l.69,3.47,2.21,1.08c.65.32,1.4,2,.92,2.54Z"/>
  <path class="st2" d="M762.89,449.16l-.02,3.63c0,1.03-2.17,2.5-3.37,2.5l-4.98-9.8-5.51-10.46c-2.09-3.97-4.63-8.35-6.33-12.37l-6.14-14.46c-.82-1.93-.91-5.18-.54-7.11.9-2.35,3.55,6.26,5.19,10.3,2.99,7.34,9.09,21.39,16.06,25.05l-.56,7.58,6.18,5.14Z"/>
  <path class="st5" d="M613.77,467.35l-8.24,3.53-1.86-6.09c-.3-1-1.51-2.91-2.02-3.83.82-.41,2.23-1.46,2.97-2.32.49-.57.1-2.29-.36-2.96l-2.86-4.12c1.22.14,2.59.92,4.09,1.89l9.5,6.15c1.1.71,2.45,3.88,2.21,5.04s-2.09,2.15-3.41,2.72Z"/>
  <path class="st5" d="M652.44,468.42c-5.01-.84-9.37.02-14.28,2.29-2.12.98-6.72,1.47-8.09,3.02-2.12,2.42-4.13,4.13-7.32,3.65l-3.15-.47c-.7-.11-.1-1.65.08-3.28-.91-1.65-4.96-3.84-7.09-3.35v-1c7.61-1.5,6.96,6.05,11.4,5.07,3.93-.87,2.52-6.43,10.75-3.99l5.89-3.97c4.5,1.03,7.1-1.51,9.96-4.34,3.44.42,1.94,4.58,1.85,6.36Z"/>
  <path class="st5" d="M583.59,425.28c-.65.05-2.59-.77-2.24-1.43l1.37-2.57.86,4Z"/>
  <path class="st2" d="M735.84,399.37l-.17-3.18.84,1.6c.21.41-.54,1.57-.68,1.57Z"/>
  <path class="st2" d="M737.82,336.25c3.01,2.96,4.89,7.04,3.78,11.15-5.72-.39-14.3-9.11-18.38-13.27-2.66-.05-5.32-1.31-7.65-3.01-1.09-2.71.4-3.97,1.99-5.81,2.45-3.23,15.08,3.15,16.23,5-.51,4.11.83,6.09,4.02,5.95Z"/>
  <path class="st13" d="M700.59,292.11c-.18,2.55,2.94,3.6,5.1,4.22.98,3.29,4.06,5.62,7.02,7.8-2.84.82-5.66,2.5-8.13,4.25-1.01-1.77-3.54-3.61-5.74-4.05l-7.9-1.6c-.12-1.47.85-5.04,2.04-5.9l5.29-3.82c-.48-.57.64.81.88.56l1.44-1.47Z"/>
  <path class="st9" d="M723.59,305.4c5.78-3.71,8.04-1.05,16.78-7.63l-1.77,2.9c2.96-.94,4.39-2.31,5.9-4.45.52,3.74-.28,9.25-2.36,12.62-6.51.6-12.89-1.45-18.55-3.44Z"/>
  <path class="st11" d="M737.82,336.25c-.11.44-.33,1.71-.82,1.63l-2.48-.41c-.71-.12-2.64-1.27-2.58-1.98l.38-4.23-10.04-4.8c-1.41-.67-3.44-1.1-4.72-1.16,2.57-2.99,5.61-4.45,10.18-3.06,3.52,1.08,6.82,3.26,7.93,6.94l2.14,7.06Z"/>
  <path class="st5" d="M568.17,324.5c.66-1.15-10.86,8.45-8.36,7.69-2.17-1.42-3.54,9.31-6.5,5.05l-2.04-2.94c-1.74-2.51-3.16-5.3-2.75-8.48.27-2.14,3.31-4.43,5.9-5.54,3.43-1.46,5.4-1.31,8.56,2.17l1.04-3.08c.68,2.43,1.83,4.12,4.14,5.12Z"/>
  <path class="st2" d="M608.45,312.07c-2.22-.27-3.62-1.73-4.73-3.8l4.73,3.8Z"/>
  <circle class="st5" cx="596.09" cy="404.78" r=".5"/>
  <circle class="st9" cx="737.09" cy="252.78" r=".5"/>
  <path class="st7" d="M397.59,732.18l-1.55,1.22c-.39.31-1.38-.87-1.45-1.13.82.02,2.12-.05,3-.09Z"/>
  <path class="st3" d="M417.62,498.02c.28.29-1.47,1.87-1.71,1.54l-1.35-1.85c-.36-.49,2.64-.13,3.07.31Z"/>
</svg>